<svg width="24" height="24" viewBox="0 0 24 24" fill="none" xmlns="http://www.w3.org/2000/svg">
<path d="M21.75 19.075V5.425C21.75 4.64924 21.5129 3.90526 21.091 3.35671C20.669 2.80817 20.0967 2.5 19.5 2.5H4.5C3.90326 2.5 3.33097 2.80817 2.90901 3.35671C2.48705 3.90526 2.25 4.64924 2.25 5.425V19.075C2.25 19.8508 2.48705 20.5947 2.90901 21.1433C3.33097 21.6918 3.90326 22 4.5 22H19.5C20.0967 22 20.669 21.6918 21.091 21.1433C21.5129 20.5947 21.75 19.8508 21.75 19.075Z" fill="#E4E9FF" stroke="#111F5B" stroke-width="1.5" stroke-linecap="round" stroke-linejoin="round"/>
<path d="M8.03072 8C8.63309 8 9.04806 8.45672 9.04806 9.07463C9.04806 9.70597 8.63309 10.1493 8.03072 10.1493C7.41497 10.1493 7 9.70597 7 9.07463C7 8.45672 7.41497 8 8.03072 8ZM8.94097 10.9015V17H7.12047V10.9015H8.94097Z" fill="#111F5B"/>
<path d="M13.9787 10.7537C15.3441 10.7537 16 11.7478 16 13.0373V17H14.1795V13.4C14.1795 12.7552 13.885 12.3657 13.3228 12.3657C12.6803 12.3657 12.185 12.9567 12.185 13.9776V17H10.3645V10.9015H12.0779L12.1181 11.7881C12.4795 11.2104 13.0819 10.7537 13.9787 10.7537Z" fill="#111F5B"/>
<path d="M8 8V10.25" stroke="#111F5B" stroke-width="2"/>
</svg>
