<svg width="24" height="24" viewBox="0 0 24 24" fill="none" xmlns="http://www.w3.org/2000/svg">
<path d="M20 8V18.5725C20 21.4966 18.5 21.4966 17.5 21.4966H6.5C5 21.4966 4 21.0319 4 18.5725V4.92703C4 2.46784 5.5 2.003 6.5 2.00293L14 2C15 2.00004 20 6.42703 20 8Z" fill="#E4E9FF"/>
<path d="M20 8V18.5725C20 21.4966 18.5 21.4966 17.5 21.4966H6.5C5 21.4966 4 21.0319 4 18.5725V4.92703C4 2.46784 5.5 2.003 6.5 2.00293L14 2M20 8C20 6.42703 15 2.00004 14 2M20 8C14 8 14 8 14 2" stroke="#111F5B" stroke-width="1.5" stroke-linecap="round" stroke-linejoin="round"/>
<path d="M11 9H7.5" stroke="#111F5B" stroke-width="1.5" stroke-linecap="square"/>
<path d="M16.5 13H7.5" stroke="#111F5B" stroke-width="1.5" stroke-linecap="square"/>
<path d="M16.5 17H7.5" stroke="#111F5B" stroke-width="1.5" stroke-linecap="square"/>
</svg>
