<svg width="24" height="24" viewBox="0 0 24 24" fill="none" xmlns="http://www.w3.org/2000/svg">
<circle cx="12" cy="12" r="10.5" fill="#111F5B"/>
<mask id="mask0_158_18" style="mask-type:alpha" maskUnits="userSpaceOnUse" x="1" y="1" width="22" height="22">
<circle cx="12" cy="12" r="10.5" fill="#111F5B"/>
</mask>
<g mask="url(#mask0_158_18)">
<path d="M12.0006 8.00025C14.0003 4.00018 14.0006 4.00021 15.0006 8.00024C16.5006 8.00014 18.0005 9.50041 18.0005 12.0004C18.0005 15.0004 15.0011 16.5003 13.5005 16.5004C14.0005 17.0004 14.5005 17.5004 14.5005 18.5004V21.5004C14.5005 23.0004 17.0005 23.5004 12.0005 23.5004C7.00053 23.5004 9.50053 23.0004 9.50053 21.5004V19.0004C7.00032 19.5002 6.07187 18.0451 5.6201 17.5C5.38978 17.2221 4.97339 17.0111 4.7531 16.9152C4.53239 16.836 4.587 16.8429 4.7531 16.9152C4.81377 16.9369 4.89524 16.9652 5.00091 17.0004C6.00053 17.3334 6.00089 19.5004 9.50053 18.5004C9.50053 17.5004 10.0978 16.8337 10.5005 16.5004C9.00095 16.5004 6.00053 15.0004 6.00053 12.0004C6.00053 9.50055 7.50064 8.00027 9.00064 8.00027C10.0006 3.99964 10.0003 4.00018 12.0006 8.00025Z" fill="#E4E9FF" stroke="#E4E9FF"/>
<circle cx="12" cy="12" r="9.75" stroke="#111F5B" stroke-width="1.5"/>
</g>
</svg>
