<svg width="90" height="94" viewBox="0 0 90 94" fill="none" xmlns="http://www.w3.org/2000/svg">
<path fill-rule="evenodd" clip-rule="evenodd" d="M27.0188 34.0627C3.53844 47.963 3.18784 81.9754 38.5381 86.5638C77.8166 91.6621 93.0383 60.9224 75.9433 42.7968C74.5423 41.3113 71.5478 37.9649 71.5478 37.9649C71.1566 29.8192 67.6956 18.1677 64.9864 16.4184C62.2772 14.6691 51.6509 28.5803 47.0379 34.5627C47.1023 27.2221 42.6134 13.5568 39.0621 12.563C35.5107 11.5691 29.0383 27.0645 27.0188 34.0627ZM25.0188 65.4284C26.4083 67.5067 30.6823 70.211 39.0795 64.689C39.6727 59.3723 39.5355 57.2618 39.0621 54.1726C31.2577 48.7418 22.3825 61.4851 25.0188 65.4284Z" fill="#E4E9FF"/>
<path d="M39.0795 64.689C30.6823 70.211 26.4083 67.5067 25.0188 65.4284C22.3825 61.4851 31.2577 48.7418 39.0621 54.1726C39.5355 57.2618 39.6727 59.3723 39.0795 64.689Z" fill="#E4E9FF"/>
<path d="M59.3307 47.8412C55.0943 52.0638 51.8052 59.8956 51.641 62.9224C52.6659 66.1827 62.3527 65.9231 66.819 66.6662M23.2267 52.3121C28.0153 45.5302 37.2021 42.0353 39.0621 54.1726M39.0621 54.1726C39.5355 57.2618 39.6727 59.3723 39.0795 64.689C30.6823 70.211 26.4083 67.5067 25.0188 65.4284C22.3825 61.4851 31.2577 48.7418 39.0621 54.1726ZM27.0188 34.0627C3.53844 47.963 3.18784 81.9754 38.5381 86.5638C77.8166 91.6621 93.0383 60.9224 75.9433 42.7968C74.5423 41.3113 71.5478 37.9649 71.5478 37.9649C71.1566 29.8192 67.6956 18.1677 64.9864 16.4184C62.2772 14.6691 51.6509 28.5803 47.0379 34.5627C47.1023 27.2221 42.6134 13.5568 39.0621 12.563C35.5107 11.5691 29.0383 27.0645 27.0188 34.0627Z" stroke="#E4E9FF" stroke-width="3" stroke-linejoin="round"/>
<path fill-rule="evenodd" clip-rule="evenodd" d="M22.0188 28.0617C-1.46155 41.9621 -1.81215 75.9744 33.5381 80.5628C72.8166 85.6611 88.0383 54.9215 70.9433 36.7958C69.5423 35.3103 66.5478 31.9639 66.5478 31.9639C66.1566 23.8182 62.6957 12.1667 59.9864 10.4174C57.2772 8.6681 46.6509 22.5793 42.038 28.5617C42.1023 21.2211 37.6134 7.55581 34.0621 6.56198C30.5107 5.56815 24.0383 21.0635 22.0188 28.0617ZM20.0188 59.4274C21.4083 61.5057 25.6823 64.21 34.0795 58.688C34.6727 53.3713 34.5355 51.2609 34.0621 48.1716C26.2577 42.7409 17.3825 55.4841 20.0188 59.4274Z" fill="#00356F"/>
<path d="M34.0795 58.688C25.6823 64.21 21.4083 61.5057 20.0188 59.4274C17.3825 55.4841 26.2577 42.7409 34.0621 48.1716C34.5355 51.2609 34.6727 53.3713 34.0795 58.688Z" fill="#00356F"/>
<path d="M34.0795 58.6878C25.6823 64.2098 21.4083 61.5055 20.0188 59.4272C17.3825 55.4839 26.2577 42.7407 34.0621 48.1714C34.5355 51.2606 34.6727 53.3711 34.0795 58.6878Z" fill="#00356F"/>
<path d="M54.3307 41.8403C50.0943 46.0628 46.8052 53.8947 46.641 56.9215C47.6659 60.1818 57.3527 59.9222 61.8191 60.6652M18.2267 46.3111C23.0153 39.5293 32.2022 36.0344 34.0621 48.1716M34.0621 48.1716C34.5355 51.2609 34.6727 53.3713 34.0795 58.688C25.6823 64.21 21.4083 61.5057 20.0188 59.4274C17.3825 55.4841 26.2577 42.7409 34.0621 48.1716ZM54.3307 41.84C50.0943 46.0626 46.8052 53.8944 46.641 56.9212C47.6659 60.1816 57.3527 59.9219 61.8191 60.665M18.2267 46.3109C23.0153 39.529 32.2022 36.0341 34.0621 48.1714M34.0621 48.1714C34.5355 51.2606 34.6727 53.3711 34.0795 58.6878C25.6823 64.2098 21.4083 61.5055 20.0188 59.4272C17.3825 55.4839 26.2577 42.7407 34.0621 48.1714ZM22.0188 28.0617C-1.46155 41.9621 -1.81215 75.9744 33.5381 80.5628C72.8166 85.6611 88.0383 54.9215 70.9433 36.7958C69.5423 35.3103 66.5478 31.9639 66.5478 31.9639C66.1566 23.8182 62.6957 12.1667 59.9864 10.4174C57.2772 8.6681 46.6509 22.5793 42.038 28.5617C42.1023 21.2211 37.6134 7.55581 34.0621 6.56198C30.5107 5.56815 24.0383 21.0635 22.0188 28.0617Z" stroke="#00356F" stroke-width="3" stroke-linejoin="round"/>
<path d="M34.0795 58.6878C25.6823 64.2098 21.4083 61.5055 20.0188 59.4272C17.3825 55.4839 26.2577 42.7407 34.0621 48.1714C34.5355 51.2606 34.6727 53.3711 34.0795 58.6878Z" fill="#00356F"/>
<path d="M54.3307 41.84C50.0943 46.0626 46.8052 53.8944 46.641 56.9212C47.6659 60.1816 57.3527 59.9219 61.8191 60.665M18.2267 46.3109C23.0153 39.5291 32.2022 36.0341 34.0621 48.1714M34.0621 48.1714C34.5355 51.2606 34.6727 53.3711 34.0795 58.6878C25.6823 64.2098 21.4083 61.5055 20.0188 59.4272C17.3825 55.4839 26.2577 42.7407 34.0621 48.1714Z" stroke="#E4E9FF" stroke-width="3" stroke-linejoin="round"/>
</svg>
