<svg width="122" height="132" viewBox="0 0 122 132" fill="none" xmlns="http://www.w3.org/2000/svg">
<path d="M25.3332 37.704C29.1083 6.91974 75.5 7.49939 79.0711 30.7863C81.3267 38.6716 88.9618 37.9047 90 30.57C87 -6.00061 17.6603 -7.44492 15.4519 36.6716C14.98 74.6333 14.829 105.255 15.2348 118.4C14.9989 128.242 26.3903 128.114 26.3714 120.377C26.1449 108.362 24.8613 65.2436 25.3332 37.704Z" fill="#111F5B" stroke="#111F5B" stroke-width="4" stroke-miterlimit="10"/>
<path d="M84.6899 32.9199V57.1599" stroke="#111F5B" stroke-width="4" stroke-miterlimit="10"/>
<path d="M84.5 56.0204C93.7858 58.2246 101.966 65.0464 104.654 76.4565C112 78 113.282 88.5 112.964 90.7366C112.646 92.9731 107 92.9235 103.807 92.5046C102.086 96.534 99.0673 101.501 94.3922 105.211C101.957 113.819 106.448 121 104.865 121C97.3464 117 90.803 118.048 86.7721 112.452C82.5202 118.048 74.4216 117.06 68.4488 121C66.4518 121 71.9276 111.315 79.1796 105.69C72.084 102.459 68.4304 98.0301 66.4518 92.9235C63.4424 93.3823 57.4696 92.8137 57.0831 90.7691C56.4389 87.368 59.5863 77.3641 64.9701 76.5662C67.4917 66.2831 74.6729 58.4996 84 56.0195L84.5 56.0204Z" fill="#4CA6EB"/>
<path d="M84.5 56.0204L84.9619 54.0744L84.5034 54.0204L84.5 56.0204ZM104.654 76.4565L102.707 76.915L102.998 78.1524L104.242 78.4138L104.654 76.4565ZM103.807 92.5046L104.067 90.5216L102.563 90.3243L101.968 91.719L103.807 92.5046ZM94.3922 105.211L93.1489 103.645L91.5016 104.952L92.8899 106.532L94.3922 105.211ZM104.865 121L103.926 122.766L104.366 123H104.865V121ZM86.7721 112.452L88.3948 111.283L86.815 109.09L85.1797 111.242L86.7721 112.452ZM68.4488 121V123H69.049L69.55 122.67L68.4488 121ZM79.1796 105.69L80.4054 107.27L83.0206 105.242L80.0085 103.87L79.1796 105.69ZM66.4518 92.9235L68.3167 92.2009L67.7368 90.7044L66.1503 90.9463L66.4518 92.9235ZM57.0831 90.7691L59.0483 90.3976L59.0481 90.3969L57.0831 90.7691ZM64.9701 76.5662L65.2633 78.5446L66.5925 78.3476L66.9125 77.0426L64.9701 76.5662ZM84 56.0195L84.0034 54.0195L83.7403 54.0191L83.4861 54.0867L84 56.0195ZM84.0381 57.9663C92.6501 60.0105 100.207 66.3024 102.707 76.915L106.6 75.998C103.725 63.7903 94.9216 56.4386 84.9619 54.0744L84.0381 57.9663ZM104.242 78.4138C106.942 78.9809 108.72 81.2229 109.818 84.0586C110.353 85.4423 110.68 86.8622 110.853 88.0635C111.032 89.3095 111.024 90.1692 110.984 90.4551L114.944 91.018C115.062 90.1856 115.014 88.8942 114.812 87.4941C114.605 86.0494 114.211 84.3285 113.548 82.6147C112.248 79.2554 109.712 75.4756 105.065 74.4992L104.242 78.4138ZM110.984 90.4551C111.038 90.0762 111.309 90.0533 110.974 90.2166C110.644 90.377 110.065 90.5332 109.233 90.6297C107.598 90.8194 105.564 90.7179 104.067 90.5216L103.547 94.4876C105.243 94.7101 107.628 94.8429 109.694 94.603C110.713 94.4848 111.805 94.2601 112.722 93.814C113.635 93.3706 114.731 92.5153 114.944 91.018L110.984 90.4551ZM101.968 91.719C100.332 95.5481 97.4865 100.202 93.1489 103.645L95.6355 106.778C100.648 102.8 103.84 97.52 105.646 93.2901L101.968 91.719ZM92.8899 106.532C96.6284 110.785 99.579 114.655 101.383 117.425C102.3 118.833 102.858 119.861 103.098 120.473C103.241 120.837 103.168 120.8 103.184 120.544C103.195 120.384 103.256 119.943 103.645 119.536C104.068 119.093 104.578 119 104.865 119V123C105.35 123 106.011 122.851 106.538 122.298C107.031 121.782 107.151 121.178 107.176 120.805C107.22 120.123 106.996 119.457 106.822 119.013C106.429 118.01 105.688 116.705 104.735 115.242C102.798 112.269 99.7209 108.245 95.8944 103.891L92.8899 106.532ZM105.804 119.234C101.819 117.114 97.9873 116.292 95.0931 115.411C92.1365 114.511 90.0187 113.537 88.3948 111.283L85.1493 113.621C87.5563 116.963 90.7257 118.263 93.9282 119.238C97.1932 120.232 100.393 120.886 103.926 122.766L105.804 119.234ZM85.1797 111.242C83.4813 113.477 80.973 114.489 77.7056 115.424C74.6057 116.311 70.6638 117.143 67.3476 119.33L69.55 122.67C72.2066 120.917 75.3004 120.273 78.806 119.27C82.1441 118.315 85.811 117.023 88.3645 113.662L85.1797 111.242ZM68.4488 119C68.7525 119 69.2317 119.108 69.6192 119.522C69.9611 119.886 70.0184 120.265 70.0294 120.376C70.0468 120.552 69.9997 120.495 70.1525 120.055C70.4225 119.278 71.0495 118.045 72.0239 116.543C73.9575 113.56 76.9955 109.915 80.4054 107.27L77.9537 104.11C74.1117 107.09 70.7857 111.1 68.6677 114.366C67.6163 115.988 66.7955 117.529 66.3739 118.743C66.1808 119.299 65.977 120.042 66.0488 120.769C66.087 121.157 66.2244 121.749 66.7019 122.258C67.225 122.816 67.8955 123 68.4488 123V119ZM80.0085 103.87C73.3762 100.849 70.1018 96.8081 68.3167 92.2009L64.5869 93.646C66.759 99.2521 70.7919 104.068 78.3506 107.51L80.0085 103.87ZM66.1503 90.9463C64.8844 91.1393 62.8599 91.1223 61.1333 90.8158C60.2684 90.6623 59.6044 90.4575 59.1877 90.2472C58.6913 89.9968 58.9671 89.9681 59.0483 90.3976L55.1179 91.1406C55.3923 92.5924 56.5597 93.4016 57.3859 93.8184C58.2918 94.2755 59.3816 94.5675 60.4343 94.7543C62.5432 95.1286 65.0097 95.1664 66.7532 94.9006L66.1503 90.9463ZM59.0481 90.3969C58.958 89.9209 58.9778 88.9554 59.2469 87.6233C59.5059 86.3415 59.9606 84.8929 60.5859 83.521C61.215 82.1409 61.9823 80.9143 62.8298 80.0171C63.6802 79.1168 64.5039 78.6572 65.2633 78.5446L64.6769 74.5878C62.7443 74.8743 61.1557 75.9643 59.9219 77.2704C58.6852 78.5797 57.6964 80.2162 56.9462 81.8619C56.1923 83.5159 55.6444 85.2558 55.3261 86.8312C55.0181 88.3563 54.8861 89.9167 55.118 91.1413L59.0481 90.3969ZM66.9125 77.0426C69.2821 67.3797 75.9786 60.2219 84.5139 57.9524L83.4861 54.0867C73.3672 56.7773 65.7014 65.1865 63.0276 76.0899L66.9125 77.0426ZM83.9966 58.0195L84.4966 58.0204L84.5034 54.0204L84.0034 54.0195L83.9966 58.0195Z" fill="#4CA6EB"/>
<path d="M102 84C101.897 88.7449 92.5535 90.273 91.2386 85.3772L90.6884 85.4055C89.8865 90.1032 80.1322 90.1221 78.9479 85.6036C78.9479 85.5753 78.6029 85.5565 78.5935 85.5848C77.5677 90.2447 69.0538 90.2353 68 84.9433" stroke="#111F5B" stroke-width="2" stroke-miterlimit="10"/>
<path d="M97.9201 92.8604C97.9201 97.8504 87.6101 98.6804 85.9201 93.6904M85.9201 93.6904C85.9101 93.6504 85.9201 93.6504 85.9201 93.6904ZM85.9201 93.6904C85.0001 98.5904 74.0901 98.0504 72.8401 93.2204" stroke="#111F5B" stroke-width="2" stroke-miterlimit="10"/>
<path d="M90.5201 76.4304C85.2901 78.5804 81.5201 77.9804 78.0601 74.1904" stroke="#111F5B" stroke-width="2" stroke-miterlimit="10"/>
<path d="M89.3601 68.0996C89.9124 68.0996 90.3601 67.6519 90.3601 67.0996C90.3601 66.5473 89.9124 66.0996 89.3601 66.0996C88.8078 66.0996 88.3601 66.5473 88.3601 67.0996C88.3601 67.6519 88.8078 68.0996 89.3601 68.0996Z" fill="#D9D9D9" stroke="#111F5B" stroke-width="2" stroke-miterlimit="10"/>
<circle cx="32.5" cy="88.5" r="13.5" fill="#B6C3D2"/>
</svg>
