<svg width="142" height="136" viewBox="0 0 142 136" fill="none" xmlns="http://www.w3.org/2000/svg">
<path d="M3.67993 20.9404C7.22993 8.51038 66.0799 1.35038 115.13 12.6504C123.73 11.8804 127.95 10.0604 137.42 8.66038C132.89 15.8204 133.03 14.6604 129.47 19.9804C134.1 26.6704 134.2 27.0604 137.3 33.9604C125.07 31.0404 121.56 27.8304 116.07 27.3004C60.8699 52.1504 9.75993 36.2404 3.67993 20.9304V20.9404Z" fill="#4CA6EB"/>
<path d="M3.67993 20.9404H2.67993C2.67993 21.4391 3.04739 21.8616 3.54128 21.9307C4.03518 21.9999 4.50453 21.6945 4.64148 21.215L3.67993 20.9404ZM115.13 12.6504L114.905 13.6249L115.061 13.6606L115.219 13.6464L115.13 12.6504ZM137.42 8.66038L138.265 9.19504L139.431 7.35222L137.274 7.67113L137.42 8.66038ZM129.47 19.9804L128.639 19.4242L128.26 19.9898L128.648 20.5495L129.47 19.9804ZM137.3 33.9604L137.068 34.933L139.045 35.4052L138.212 33.5506L137.3 33.9604ZM116.07 27.3004L116.166 26.305L115.902 26.2795L115.659 26.3885L116.07 27.3004ZM3.67993 20.9304L4.60933 20.5613C4.43223 20.1153 3.96333 19.858 3.49204 19.9482C3.02075 20.0383 2.67993 20.4505 2.67993 20.9304H3.67993ZM4.64148 21.215C4.99045 19.9931 6.07012 18.6913 8.03096 17.3839C9.97347 16.0888 12.6631 14.8675 16.0079 13.7615C22.6925 11.5514 31.8323 9.85423 42.4328 8.89254C63.6287 6.96959 90.4964 8.00156 114.905 13.6249L115.354 11.6759C90.7135 5.9992 63.6311 4.96117 42.2521 6.90072C31.565 7.87027 22.2611 9.58753 15.3801 11.8626C11.9421 12.9994 9.06842 14.2884 6.92148 15.7199C4.79287 17.1391 3.25692 18.7801 2.71838 20.6658L4.64148 21.215ZM115.219 13.6464C119.581 13.2558 122.834 12.5981 126.163 11.8684C129.487 11.1398 132.873 10.3435 137.566 9.64963L137.274 7.67113C132.497 8.37725 129.038 9.19094 125.735 9.91481C122.436 10.6377 119.279 11.2749 115.041 11.6544L115.219 13.6464ZM136.575 8.12572C134.323 11.6848 133.243 13.1591 132.288 14.4009C131.316 15.6664 130.44 16.7323 128.639 19.4242L130.301 20.5365C132.06 17.9084 132.894 16.8944 133.874 15.6198C134.872 14.3216 135.987 12.796 138.265 9.19504L136.575 8.12572ZM128.648 20.5495C130.966 23.8991 132.12 25.6294 133.083 27.3748C134.049 29.1258 134.829 30.9007 136.388 34.3702L138.212 33.5506C136.671 30.12 135.85 28.25 134.834 26.4085C133.815 24.5614 132.604 22.7517 130.292 19.4113L128.648 20.5495ZM137.532 32.9877C131.485 31.5439 127.601 30.0313 124.528 28.8053C121.47 27.5853 119.081 26.5864 116.166 26.305L115.974 28.2958C118.549 28.5444 120.66 29.4154 123.787 30.6629C126.899 31.9045 130.885 33.4568 137.068 34.933L137.532 32.9877ZM115.659 26.3885C88.2368 38.7336 61.8491 40.9452 41.59 38.1845C31.4576 36.8038 22.8834 34.1828 16.4908 30.9848C10.0531 27.7643 5.99194 24.0429 4.60933 20.5613L2.75054 21.2995C4.40792 25.4729 9.01553 29.4815 15.596 32.7735C22.2214 36.0879 31.0147 38.7619 41.3199 40.1662C61.9358 42.9755 88.703 40.7171 116.48 28.2122L115.659 26.3885ZM2.67993 20.9304V20.9404H4.67993V20.9304H2.67993Z" fill="#4CA6EB"/>
<path d="M60.8701 11.8203C72.8001 12.5203 72.5601 23.2203 61.4801 24.2503C73.0701 25.0103 72.0901 35.3003 60.8701 35.9903" stroke="#111F5B" stroke-width="2" stroke-miterlimit="10"/>
<path d="M76.56 18.04C87.6 18.76 87.26 29.08 75.95 29.78" stroke="#111F5B" stroke-width="2" stroke-miterlimit="10"/>
<path d="M39.98 17.8096C45.68 22.4796 45.55 25.0296 43.21 30.0096" stroke="#111F5B" stroke-width="2" stroke-miterlimit="10"/>
<path d="M4 65.3603C7.55 52.9303 66.4 45.7703 115.45 57.0703C124.05 56.3003 128.27 54.4803 137.74 53.0803C133.21 60.2403 133.35 59.0803 129.79 64.4003C134.42 71.0903 134.52 71.4803 137.62 78.3803C125.39 75.4603 121.88 72.2503 116.39 71.7203C61.19 96.5703 10.08 80.6603 4 65.3503V65.3603Z" fill="#4CA6EB" fill-opacity="0.7"/>
<path d="M61.5801 56.6396C73.3101 57.3296 73.0801 67.8496 62.1801 68.8696C73.5801 69.6096 72.6201 79.7396 61.5801 80.4196" stroke="#111F5B" stroke-opacity="0.7" stroke-width="2" stroke-miterlimit="10"/>
<path d="M77.0099 62.7598C87.8699 63.4698 87.5299 73.6198 76.4099 74.3098" stroke="#111F5B" stroke-opacity="0.7" stroke-width="2" stroke-miterlimit="10"/>
<path d="M41.03 62.5303C46.63 67.1203 46.5 69.6303 44.2 74.5303" stroke="#111F5B" stroke-opacity="0.7" stroke-width="2" stroke-miterlimit="10"/>
<path d="M4 109.36C7.55 96.9303 66.4 89.7703 115.45 101.07C124.05 100.3 128.27 98.4803 137.74 97.0803C133.21 104.24 133.35 103.08 129.79 108.4C134.42 115.09 134.52 115.48 137.62 122.38C125.39 119.46 121.88 116.25 116.39 115.72C61.19 140.57 10.08 124.66 4 109.35V109.36Z" fill="#4CA6EB" fill-opacity="0.3"/>
<path d="M61.1899 100.24C73.1199 100.94 72.8799 111.64 61.7999 112.67C73.3899 113.43 72.4099 123.72 61.1899 124.41" stroke="#111F5B" stroke-opacity="0.3" stroke-width="2" stroke-miterlimit="10"/>
<path d="M76.88 106.46C87.92 107.18 87.58 117.5 76.27 118.2" stroke="#111F5B" stroke-opacity="0.3" stroke-width="2" stroke-miterlimit="10"/>
<path d="M40.3 106.23C46 110.9 45.87 113.45 43.53 118.43" stroke="#111F5B" stroke-opacity="0.3" stroke-width="2" stroke-miterlimit="10"/>
<path d="M19.24 20.8198C19.7978 20.8198 20.25 20.3676 20.25 19.8098C20.25 19.252 19.7978 18.7998 19.24 18.7998C18.6822 18.7998 18.23 19.252 18.23 19.8098C18.23 20.3676 18.6822 20.8198 19.24 20.8198Z" stroke="#111F5B" stroke-width="2" stroke-miterlimit="10"/>
<path d="M19.9299 65.6401C20.4877 65.6401 20.9399 65.1879 20.9399 64.6301C20.9399 64.0723 20.4877 63.6201 19.9299 63.6201C19.3721 63.6201 18.9199 64.0723 18.9199 64.6301C18.9199 65.1879 19.3721 65.6401 19.9299 65.6401Z" stroke="#111F5B" stroke-opacity="0.7" stroke-width="2" stroke-miterlimit="10"/>
<path d="M18.9299 109.64C19.4877 109.64 19.9399 109.188 19.9399 108.63C19.9399 108.072 19.4877 107.62 18.9299 107.62C18.3721 107.62 17.9199 108.072 17.9199 108.63C17.9199 109.188 18.3721 109.64 18.9299 109.64Z" stroke="#111F5B" stroke-opacity="0.4" stroke-width="2" stroke-miterlimit="10"/>
</svg>
