<svg width="155" height="155" viewBox="0 0 155 155" fill="none" xmlns="http://www.w3.org/2000/svg">
<path d="M8.02002 80.3102C12.75 59.4402 27.47 39.5102 51.99 33.4702C55.44 12.1202 83.9 10.7902 84.84 14.7702C86.11 20.1502 86.11 25.2702 86.48 35.3602C95.13 39.2302 103.68 46.0302 111.65 56.5202C126.95 37.6102 134.75 31.9202 147.73 32.9802C144.97 39.6002 141.61 74.1102 129.35 73.6702C141.8 74.1202 147.73 114.88 147.73 114.88C147.73 114.88 124.76 107.06 112.67 90.7502C111.03 94.5102 108.93 98.0802 106.54 101.41C106.05 107.28 104.12 120.69 100.56 126.34C98.81 129.13 91.56 125.28 87.03 120.07C82.2 124 81.02 122.66 76.56 124.16C77.54 130.92 80.95 141.64 76.56 142.51C69.25 143.96 50.5 133.8 48.79 121.7C26.68 116.05 11.94 98.1602 8.02002 80.3102Z" fill="#4CA6EB"/>
<path d="M8.02002 80.3102L6.06949 79.8681L5.97085 80.3033L6.06657 80.7392L8.02002 80.3102ZM51.99 33.4702L52.4684 35.4121L53.7533 35.0956L53.9644 33.7892L51.99 33.4702ZM84.84 14.7702L86.7865 14.3107L86.7865 14.3105L84.84 14.7702ZM86.48 35.3602L84.4814 35.4335L84.527 36.6774L85.6632 37.1858L86.48 35.3602ZM111.65 56.5202L110.058 57.7301L111.601 59.761L113.205 57.7782L111.65 56.5202ZM147.73 32.9802L149.576 33.7498C149.822 33.1591 149.771 32.4862 149.438 31.9397C149.105 31.3931 148.531 31.0389 147.893 30.9868L147.73 32.9802ZM129.35 73.6702L129.422 71.6715L129.278 75.6689L129.35 73.6702ZM147.73 114.88L147.085 116.773C147.745 116.998 148.473 116.863 149.009 116.418C149.544 115.973 149.809 115.281 149.709 114.592L147.73 114.88ZM112.67 90.7502L114.277 89.5592L112.219 86.7826L110.837 89.9506L112.67 90.7502ZM106.54 101.41L104.915 100.244L104.593 100.693L104.547 101.244L106.54 101.41ZM100.56 126.34L98.8679 125.274L98.8657 125.277L100.56 126.34ZM87.03 120.07L88.5393 118.758L87.2692 117.297L85.7677 118.519L87.03 120.07ZM76.56 124.16L75.9225 122.265L74.3414 122.796L74.5807 124.447L76.56 124.16ZM76.56 142.51L76.1712 140.548L76.1709 140.548L76.56 142.51ZM48.79 121.7L50.7703 121.42L50.5829 120.094L49.2852 119.762L48.79 121.7ZM9.97055 80.7522C14.573 60.445 28.8432 41.2317 52.4684 35.4121L51.5117 31.5282C26.0968 37.7886 10.927 58.4353 6.06949 79.8681L9.97055 80.7522ZM53.9644 33.7892C55.5267 24.1212 62.724 18.8922 69.9774 16.5225C73.5985 15.3395 77.118 14.9168 79.7248 15.0094C81.0398 15.0561 82.0263 15.2308 82.6459 15.4453C82.9566 15.5528 83.093 15.6425 83.1235 15.6663C83.1518 15.6884 82.9711 15.558 82.8936 15.2299L86.7865 14.3105C86.5915 13.4848 86.0783 12.8984 85.5847 12.5132C85.0933 12.1296 84.5185 11.8606 83.9543 11.6653C82.8242 11.2741 81.406 11.0666 79.8668 11.0119C76.7652 10.9017 72.7778 11.3996 68.7352 12.7203C60.661 15.3581 51.9034 21.4691 50.0156 33.1511L53.9644 33.7892ZM82.8935 15.2297C84.1059 20.3654 84.1067 25.2169 84.4814 35.4335L88.4787 35.2869C88.1133 25.3235 88.1142 19.9349 86.7865 14.3107L82.8935 15.2297ZM85.6632 37.1858C93.9556 40.8958 102.253 47.4583 110.058 57.7301L113.243 55.3102C105.107 44.6021 96.3044 37.5646 87.2968 33.5346L85.6632 37.1858ZM113.205 57.7782C120.851 48.3277 126.461 42.3948 131.669 38.9259C136.746 35.5441 141.484 34.4768 147.567 34.9735L147.893 30.9868C140.996 30.4236 135.344 31.6713 129.451 35.5969C123.689 39.4356 117.749 45.8026 110.095 55.2622L113.205 57.7782ZM145.884 32.2105C145.472 33.1998 145.086 34.6024 144.706 36.1786C144.319 37.7842 143.908 39.701 143.463 41.7721C142.566 45.9402 141.518 50.7943 140.181 55.4172C138.837 60.0671 137.244 64.3251 135.318 67.3563C133.359 70.4384 131.403 71.7425 129.422 71.6715L129.278 75.6689C133.427 75.8178 136.488 72.9732 138.694 69.5015C140.932 65.979 142.651 61.2782 144.024 56.5281C145.405 51.751 146.48 46.7639 147.373 42.6132C147.822 40.525 148.222 38.663 148.595 37.1159C148.975 35.5395 149.298 34.4155 149.576 33.7498L145.884 32.2105ZM129.278 75.6689C131.273 75.741 133.488 77.5029 135.755 81.3202C137.936 84.9937 139.789 89.946 141.291 95.0126C142.787 100.055 143.903 105.097 144.646 108.889C145.017 110.782 145.294 112.358 145.478 113.458C145.57 114.007 145.639 114.438 145.684 114.73C145.707 114.876 145.724 114.987 145.735 115.061C145.74 115.098 145.745 115.125 145.747 115.143C145.749 115.152 145.749 115.159 145.75 115.163C145.75 115.165 145.751 115.167 145.751 115.167C145.751 115.168 145.751 115.168 145.751 115.168C145.751 115.168 145.751 115.168 147.73 114.88C149.709 114.592 149.709 114.592 149.709 114.591C149.709 114.591 149.709 114.59 149.709 114.589C149.708 114.588 149.708 114.585 149.708 114.582C149.707 114.577 149.706 114.569 149.704 114.558C149.701 114.537 149.696 114.506 149.69 114.466C149.678 114.385 149.66 114.268 149.637 114.115C149.589 113.809 149.518 113.364 149.424 112.798C149.234 111.667 148.951 110.055 148.572 108.12C147.814 104.255 146.67 99.0795 145.126 93.8753C143.59 88.6956 141.626 83.3735 139.194 79.2779C136.847 75.3262 133.652 71.8243 129.422 71.6715L129.278 75.6689ZM147.73 114.88C148.375 112.987 148.375 112.987 148.375 112.987C148.375 112.987 148.375 112.987 148.375 112.987C148.375 112.987 148.375 112.987 148.374 112.987C148.372 112.986 148.369 112.985 148.365 112.984C148.356 112.981 148.342 112.976 148.323 112.969C148.284 112.955 148.223 112.934 148.143 112.905C147.982 112.848 147.74 112.76 147.425 112.641C146.795 112.403 145.875 112.044 144.729 111.561C142.437 110.594 139.253 109.136 135.698 107.179C128.557 103.247 120.076 97.3823 114.277 89.5592L111.063 91.9412C117.354 100.428 126.404 106.628 133.769 110.683C137.469 112.72 140.782 114.237 143.175 115.246C144.372 115.751 145.34 116.13 146.014 116.384C146.351 116.511 146.614 116.607 146.795 116.671C146.886 116.704 146.956 116.729 147.005 116.746C147.029 116.754 147.048 116.761 147.062 116.765C147.068 116.768 147.074 116.769 147.078 116.771C147.08 116.771 147.081 116.772 147.083 116.772C147.083 116.773 147.084 116.773 147.084 116.773C147.085 116.773 147.085 116.773 147.73 114.88ZM110.837 89.9506C109.261 93.5637 107.235 97.0117 104.915 100.244L108.165 102.576C110.625 99.1486 112.799 95.4566 114.503 91.5498L110.837 89.9506ZM104.547 101.244C104.308 104.109 103.713 108.849 102.743 113.554C101.755 118.339 100.437 122.784 98.8679 125.274L102.252 127.406C104.243 124.247 105.67 119.161 106.66 114.362C107.667 109.482 108.282 104.582 108.533 101.577L104.547 101.244ZM98.8657 125.277C98.9572 125.132 99.0374 125.302 98.4449 125.273C97.8285 125.242 96.8946 124.982 95.7132 124.407C93.379 123.27 90.6444 121.179 88.5393 118.758L85.5207 121.382C87.9457 124.171 91.101 126.61 93.9618 128.003C95.3779 128.693 96.8678 129.199 98.2445 129.268C99.6451 129.338 101.288 128.944 102.254 127.403L98.8657 125.277ZM85.7677 118.519C83.5304 120.339 82.2953 120.821 81.1968 121.08C80.5343 121.236 79.9748 121.305 79.0432 121.473C78.1671 121.631 77.1568 121.849 75.9225 122.265L77.1976 126.056C78.1932 125.721 79.003 125.545 79.7534 125.409C80.4483 125.284 81.3219 125.16 82.1157 124.973C83.9297 124.545 85.6997 123.731 88.2923 121.622L85.7677 118.519ZM74.5807 124.447C74.835 126.201 75.2456 128.205 75.6287 130.144C76.0186 132.118 76.3846 134.048 76.5874 135.777C76.7951 137.547 76.8027 138.896 76.6003 139.78C76.4137 140.595 76.1953 140.544 76.1712 140.548L76.9488 144.472C79.1198 144.042 80.1213 142.324 80.4994 140.673C80.8617 139.091 80.7787 137.174 80.5602 135.311C80.3367 133.406 79.9408 131.334 79.5529 129.369C79.1582 127.371 78.775 125.499 78.5393 123.873L74.5807 124.447ZM76.1709 140.548C74.8481 140.811 72.7007 140.572 70.0101 139.675C67.3808 138.798 64.4571 137.368 61.6833 135.522C56.0297 131.758 51.5048 126.617 50.7703 121.42L46.8097 121.98C47.7853 128.883 53.4904 134.873 59.4667 138.851C62.5079 140.876 65.7492 142.47 68.745 143.469C71.6793 144.447 74.617 144.935 76.9492 144.472L76.1709 140.548ZM49.2852 119.762C27.9547 114.312 13.7422 97.0422 9.97347 79.8812L6.06657 80.7392C10.1379 99.2781 25.4054 117.789 48.2949 123.638L49.2852 119.762Z" fill="#4CA6EB"/>
<path d="M66.6699 41.5498C77.6199 41.5498 78.9999 64.1198 67.8199 67.1398C67.7999 67.1398 67.7999 67.1698 67.8199 67.1698C78.7099 68.7098 79.6399 87.3798 69.1099 89.8998C69.0899 89.8998 69.0899 89.9298 69.1099 89.9298C80.0999 91.7198 78.1499 110.36 68.2899 111.94" stroke="#111F5B" stroke-width="4" stroke-miterlimit="10"/>
<path d="M83.5 53.0596C93.21 53.4996 95.4 76.3996 85.42 79.0696C85.38 79.0796 85.38 79.1296 85.42 79.1396C94.98 81.2096 94.91 99.8896 85.39 101.9" stroke="#111F5B" stroke-width="4" stroke-miterlimit="10"/>
<path d="M50.47 66.1602C57.19 74.8502 58.01 82.2002 52.7 90.6402" stroke="#111F5B" stroke-width="4" stroke-miterlimit="10"/>
<path d="M30.6899 78.7998C32.2198 78.7998 33.4599 77.5596 33.4599 76.0298C33.4599 74.4999 32.2198 73.2598 30.6899 73.2598C29.1601 73.2598 27.9199 74.4999 27.9199 76.0298C27.9199 77.5596 29.1601 78.7998 30.6899 78.7998Z" fill="#111F5B" stroke="#111F5B" stroke-width="6" stroke-miterlimit="10"/>
</svg>
