<svg width="26" height="26" viewBox="0 0 26 26" fill="none" xmlns="http://www.w3.org/2000/svg">
<path d="M10.4484 24.8507C-0.859426 23.383 -0.747277 12.5032 6.7636 8.05677C7.40958 5.81817 9.47997 1.18142 10.616 1.49933C11.752 1.81723 13.1879 5.86859 13.1673 8.21671C14.6429 6.30305 18.042 1.53327 18.9086 2.09284C19.7753 2.65241 20.8823 6.69936 21.0075 9.30498C21.0075 9.30498 21.9653 10.3754 22.4135 10.8506C27.8818 16.6486 23.0127 26.4816 10.4484 24.8507Z" fill="#111F5B" stroke="#111F5B" stroke-linejoin="round"/>
<path d="M16.5001 11.9998C15.5001 13.8942 14.6917 16.32 14.6391 17.2883C14.967 18.3312 18.5 18.0899 20 18.0899M5.5 13.5C7.03178 11.3306 10.0205 10.6069 10.6154 14.4894M10.6154 14.4894C10.7668 15.4775 10.8107 16.1526 10.621 17.8533C7.9349 19.6197 6.56774 18.7547 6.12328 18.0899C5.27998 16.8285 8.11896 12.7522 10.6154 14.4894Z" stroke="#E4E9FF" stroke-linejoin="round"/>
</svg>
