<svg width="82" height="84" viewBox="0 0 82 84" fill="none" xmlns="http://www.w3.org/2000/svg">
<path fill-rule="evenodd" clip-rule="evenodd" d="M23.0191 28.0607C-0.461302 41.961 -0.8119 75.9734 34.5383 80.5618C73.8168 85.6601 89.0386 54.9204 71.9436 36.7948C70.5425 35.3092 67.548 31.9628 67.548 31.9628C67.1568 23.8172 63.6959 11.1657 60.9867 9.41638C58.2775 7.66705 47.6511 22.5783 43.0382 28.5607C43.1026 21.22 38.6137 8.55477 35.0623 7.56094C31.5109 6.5671 25.0385 21.0624 23.0191 28.0607ZM21.0191 59.4264C22.4085 61.5047 26.6825 64.2089 35.0798 58.6869C35.673 53.3703 35.5357 51.2598 35.0623 48.1706C27.258 42.7398 18.3828 55.483 21.0191 59.4264Z" fill="#E4E9FF"/>
<path d="M35.0798 58.6869C26.6825 64.2089 22.4085 61.5047 21.0191 59.4264C18.3828 55.483 27.258 42.7398 35.0623 48.1706C35.5357 51.2598 35.673 53.3703 35.0798 58.6869Z" fill="#E4E9FF"/>
<path d="M55.331 41.8392C51.0945 46.0618 47.8054 53.8936 47.6412 56.9204C48.6661 60.1807 58.353 59.9211 62.8193 60.6642M19.227 46.31C24.0156 39.5282 33.2024 36.0333 35.0623 48.1706M35.0623 48.1706C35.5357 51.2598 35.673 53.3703 35.0798 58.6869C26.6825 64.2089 22.4085 61.5047 21.0191 59.4264C18.3828 55.483 27.258 42.7398 35.0623 48.1706ZM23.0191 28.0607C-0.461302 41.961 -0.8119 75.9733 34.5383 80.5618C73.8168 85.6601 89.0385 54.9204 71.9436 36.7948C70.5425 35.3092 67.548 31.9628 67.548 31.9628C67.1568 23.8172 63.6959 11.1657 60.9867 9.41638C58.2775 7.66705 47.6511 22.5783 43.0382 28.5607C43.1026 21.22 38.6137 8.55477 35.0623 7.56094C31.5109 6.5671 25.0385 21.0624 23.0191 28.0607Z" stroke="#E4E9FF" stroke-width="3" stroke-linejoin="round"/>
<path d="M29.5383 74.5608C-5.8119 69.9724 -5.4613 35.96 18.0191 22.0597C20.0385 15.0615 26.5109 0.566128 30.0623 1.55996C33.6137 2.5538 38.1026 15.2191 38.0382 22.5597C42.6511 16.5773 53.2775 1.66608 55.9867 3.4154C58.6959 5.16472 62.1568 17.8162 62.548 25.9619C62.548 25.9619 65.5425 29.3083 66.9436 30.7938C84.0386 48.9194 68.8168 79.6591 29.5383 74.5608Z" stroke="#111F5B" stroke-width="3" stroke-linejoin="round"/>
<path d="M50.3297 35.84C46.0933 40.0626 42.8041 47.8944 42.6399 50.9212C43.6648 54.1816 53.3517 53.9219 57.818 54.665M14.2257 40.3109C19.0143 33.5291 28.2011 30.0341 30.061 42.1714M30.061 42.1714C30.5344 45.2606 30.6717 47.3711 30.0785 52.6878C21.6813 58.2098 17.4073 55.5055 16.0178 53.4272C13.3815 49.4839 22.2567 36.7407 30.061 42.1714Z" stroke="#111F5B" stroke-width="3" stroke-linejoin="round"/>
</svg>
