<svg width="101" height="101" viewBox="0 0 101 101" fill="none" xmlns="http://www.w3.org/2000/svg">
<path d="M43.3318 65.5312C35.3318 72.5312 30.8318 69.0312 29.3318 67.0312C26.4858 63.2365 34.6576 48.0312 42.7447 53.0312C43.3848 56.0903 43.6361 60.1903 43.3318 65.5312Z" fill="#E4E9FF"/>
<path fill-rule="evenodd" clip-rule="evenodd" d="M37.3318 34.5312C10.746 40.5 1.74649 80.1203 38.8318 91.5312C72.9568 102.031 94.0662 79.2265 84.742 54.6034C84.7029 54.5002 84.6632 54.3969 84.623 54.2935C86.7897 46.1269 93.6318 23.6313 90.8318 22.0312C88.0318 20.4312 70.6651 30.6979 62.3318 36.0312C61.9985 28.6979 60.4318 13.8312 56.8318 13.0312C53.2318 12.2312 42.3318 27.0312 37.3318 34.5312ZM29.3318 67.0312C30.8318 69.0312 35.3318 72.5312 43.3318 65.5312C43.6361 60.1903 43.3848 56.0903 42.7447 53.0312C34.6576 48.0312 26.4858 63.2365 29.3318 67.0312Z" fill="#E4E9FF"/>
<path d="M78.8318 44.0312C81.4568 47.5312 83.4099 51.0859 84.742 54.6034M66.746 51.5C61.746 55 56.8318 61 56.8318 64.0312C58.0318 67.2313 66.746 67.5 71.246 68M26.8318 53.0312C31.2159 45.0601 40.2301 41.0126 42.7447 53.0312M42.7447 53.0312C43.3848 56.0903 43.6361 60.1903 43.3318 65.5312C35.3318 72.5312 30.8318 69.0312 29.3318 67.0312C26.4858 63.2365 34.6576 48.0312 42.7447 53.0312ZM84.742 54.6034C94.0662 79.2265 72.9568 102.031 38.8318 91.5312C1.74649 80.1203 10.746 40.5 37.3318 34.5312C42.3318 27.0312 53.2318 12.2312 56.8318 13.0312C60.4318 13.8312 61.9985 28.6979 62.3318 36.0312C70.6651 30.6979 88.0318 20.4312 90.8318 22.0312C93.6318 23.6313 86.7897 46.1269 84.623 54.2935C84.6632 54.3969 84.7029 54.5002 84.742 54.6034Z" stroke="#E4E9FF" stroke-width="4"/>
<path d="M74.7088 38.0312C95.7088 66.0312 73.7088 97.5311 34.7088 85.5312C-2.3765 74.1203 6.62305 34.5 33.2088 28.5312C38.2088 21.0312 49.1088 6.23117 52.7088 7.03117C56.3088 7.83117 57.8755 22.6979 58.2088 30.0312C66.5422 24.6979 83.9088 14.4312 86.7088 16.0312C89.5088 17.6313 85.8755 34.3646 83.7088 42.5312M62.623 45.5C57.623 49 52.7088 55 52.7088 58.0312C53.9088 61.2313 62.623 61.5 67.123 62M22.7088 48.0312C27.123 41 36.1071 37.0126 38.6217 49.0312M38.6217 49.0312C39.2618 52.0903 39.5132 54.1903 39.2088 59.5312C31.123 65.5 26.7088 63.0312 25.2088 61.0312C22.3628 57.2365 30.5346 44.0312 38.6217 49.0312Z" stroke="#00356F" stroke-width="4"/>
<path d="M43.1239 64H47.6239" stroke="#00356F" stroke-width="4"/>
</svg>
