<svg width="91" height="94" viewBox="0 0 91 94" fill="none" xmlns="http://www.w3.org/2000/svg">
<path fill-rule="evenodd" clip-rule="evenodd" d="M27.8681 33.9328C4.38768 47.8332 4.03708 81.8455 39.3873 86.4339C78.6658 91.5322 93.8875 60.7926 76.7926 42.6669C75.3915 41.1814 72.397 37.835 72.397 37.835C72.0058 29.6893 68.5449 18.0378 65.8357 16.2885C63.1265 14.5392 52.5001 28.4504 47.8872 34.4328C47.9516 27.0922 43.4627 13.4269 39.9113 12.4331C36.3599 11.4392 29.8875 26.9346 27.8681 33.9328ZM25.8681 65.2985C27.2575 67.3768 31.5315 70.0811 39.9288 64.5591C40.522 59.2424 40.3847 57.132 39.9113 54.0427C32.1069 48.612 23.2318 61.3552 25.8681 65.2985Z" fill="#E4E9FF"/>
<path d="M39.9288 64.5591C31.5315 70.0811 27.2575 67.3768 25.8681 65.2985C23.2318 61.3552 32.1069 48.612 39.9113 54.0427C40.3847 57.132 40.522 59.2424 39.9288 64.5591Z" fill="#E4E9FF"/>
<path d="M60.18 47.7114C55.9435 51.9339 52.6544 59.7658 52.4902 62.7926C53.5151 66.0529 63.202 65.7933 67.6683 66.5363M24.0759 52.1822C28.8646 45.4004 38.0514 41.9054 39.9113 54.0427M39.9113 54.0427C40.3847 57.132 40.522 59.2424 39.9288 64.5591C31.5315 70.0811 27.2575 67.3768 25.8681 65.2985C23.2318 61.3552 32.1069 48.612 39.9113 54.0427ZM27.8681 33.9328C4.38768 47.8332 4.03708 81.8455 39.3873 86.4339C78.6658 91.5322 93.8875 60.7926 76.7926 42.6669C75.3915 41.1814 72.397 37.835 72.397 37.835C72.0058 29.6893 68.5449 18.0378 65.8357 16.2885C63.1265 14.5392 52.5001 28.4504 47.8872 34.4328C47.9516 27.0922 43.4627 13.4269 39.9113 12.4331C36.3599 11.4392 29.8875 26.9346 27.8681 33.9328Z" stroke="#E4E9FF" stroke-width="3" stroke-linejoin="round"/>
<path d="M71.6357 36.6913C88.7307 54.817 73.5089 85.5566 34.2304 80.4583C-1.11979 75.8699 -0.769195 41.8576 22.7112 27.9572C24.7306 20.959 31.203 5.46365 34.7544 6.45749C38.3058 7.45132 42.7947 21.1166 42.7303 28.4572C47.3432 22.4748 57.9696 8.5636 60.6788 10.3129C63.388 12.0623 67.8489 25.7137 67.2401 33.8594M55.0231 41.7358C50.7867 45.9583 47.4975 53.7902 47.3333 56.817C48.3582 60.0773 58.0451 59.8177 62.5114 60.5607M19.9191 46.2066C24.7077 39.4248 33.8945 35.9299 35.7544 48.0671M35.7544 48.0671C36.2278 51.1564 36.3651 53.2668 35.7719 58.5835C27.3747 64.1055 23.1007 61.4012 21.7112 59.3229C19.0749 55.3796 27.9501 42.6364 35.7544 48.0671Z" stroke="#00356F" stroke-width="3" stroke-linejoin="round"/>
</svg>
