<svg width="262" height="236" viewBox="0 0 262 236" fill="none" xmlns="http://www.w3.org/2000/svg">
<g clip-path="url(#clip0_69_2)">
<path d="M34.1225 1.45707C22.706 8.2357 0.213332 34.0756 0 40.8521V52.0691C0 66.2877 13.2906 78.7848 25.3578 78.7848C39.8473 78.7848 51.9198 66.7763 51.9209 52.5235C51.9209 66.7763 63.5795 78.7848 78.0701 78.7848C92.5618 78.7848 103.846 66.7763 103.846 52.5235C103.846 66.7763 116.243 78.7848 130.733 78.7848H130.996C145.487 78.7848 157.884 66.7763 157.884 52.5235C157.884 66.7763 169.169 78.7848 183.659 78.7848C198.15 78.7848 209.808 66.7763 209.808 52.5235C209.808 66.7763 221.883 78.7848 236.371 78.7848C248.438 78.7848 261.729 66.2899 261.729 52.0691V40.8521C261.516 34.0745 239.023 8.23357 227.609 1.45707C192.125 0.211204 167.526 -0.00426151 130.863 0.0010718C94.2023 0.00427179 44.2206 0.577069 34.1204 1.45707H34.1225ZM103.663 72.0882C102.277 74.5035 100.561 76.7133 98.5639 78.6536C93.094 84.0018 85.5965 87.317 77.3309 87.317C69.3771 87.3244 61.7376 84.2124 56.0531 78.6493C54.0712 76.708 52.5651 74.6322 51.1859 72.2152L51.1795 72.2194C49.8014 74.6408 47.8814 76.7154 45.8953 78.6589C40.2086 84.2179 32.57 87.3273 24.6175 87.3202C23.6212 87.3202 22.5844 87.045 21.746 86.757C20.5812 98.8871 20.0895 110.48 19.9157 118.932L19.9135 118.98C19.8922 123.272 19.8709 126.802 19.8495 131.705C20.0735 157.156 17.329 214.194 31.0708 228.209C52.3657 233.175 91.5506 235.436 130.862 235.45H130.869C170.18 235.436 209.364 233.175 230.659 228.209C244.401 214.193 241.657 157.155 241.881 131.704C241.857 126.802 241.838 123.272 241.817 118.979L241.813 118.931C241.641 110.476 241.149 98.8849 239.984 86.7549C239.146 87.0429 238.11 87.3181 237.113 87.3181C229.16 87.3252 221.522 84.2158 215.835 78.6568C213.849 76.7133 211.929 74.6397 210.55 72.2173L210.543 72.213C209.163 74.6301 207.658 76.7069 205.676 78.6472C199.992 84.2098 192.353 87.3215 184.399 87.3138C176.135 87.3138 168.636 83.9965 163.166 78.6493C161.169 76.709 159.453 74.4992 158.068 72.084C156.697 74.4965 154.997 76.7062 153.016 78.6493C147.33 84.2114 139.69 87.3225 131.736 87.3149C131.448 87.3149 131.16 87.302 130.872 87.2935H130.865C130.577 87.302 130.289 87.3149 129.997 87.3149C122.043 87.3228 114.403 84.2121 108.717 78.6504C106.737 76.7073 105.036 74.4976 103.666 72.085L103.663 72.0882ZM81.8109 100.344L81.8087 100.355H81.8247C90.4786 100.373 98.166 100.355 107.691 110.75C115.188 109.964 123.021 109.572 130.861 109.584H130.868C138.708 109.573 146.541 109.964 154.039 110.75C163.564 100.354 171.252 100.372 179.905 100.355H179.92L179.918 100.344C184.007 100.344 200.362 100.344 211.758 132.351L223.999 176.261C233.07 208.926 221.095 209.725 206.157 209.754C184.005 208.929 171.739 192.842 171.739 176.757C159.477 178.766 145.172 179.771 130.867 179.772H130.86C116.554 179.772 102.249 178.766 89.9879 176.757C89.9879 192.842 77.7213 208.929 55.5699 209.754C40.6324 209.725 28.658 208.927 37.7289 176.261L49.9731 132.353C61.3693 100.345 77.7245 100.345 81.813 100.345L81.8109 100.344ZM130.861 125.498V125.505C130.84 125.526 107.541 146.923 103.352 154.534L118.61 153.923V167.228C118.61 167.851 124.732 167.597 130.861 167.313H130.868C136.995 167.597 143.118 167.851 143.118 167.228V153.923L158.376 154.534C154.186 146.923 130.867 125.505 130.867 125.505V125.498L130.863 125.5L130.861 125.498Z" fill="#111F5B"/>
</g>
<defs>
<clipPath id="clip0_69_2">
<rect width="261.728" height="235.452" fill="white"/>
</clipPath>
</defs>
</svg>
