<svg width="225" height="180" viewBox="0 0 225 180" fill="none" xmlns="http://www.w3.org/2000/svg">
<g filter="url(#filter0_iig_432_40)">
<path d="M209.774 79.5033C210 16 140.479 31.2452 97.6289 59.5001C91.3406 47.3806 77.1963 30.9219 74.4998 32.0006C71.2741 33.291 67.7641 39.5006 62.0472 49.5003C42.0472 36.0003 13.5 15.5005 32.8674 57.5002C32.8789 58.6843 30.6172 62.0369 27.8674 70.3421C25.1177 78.6473 15.7499 96.4313 37.5 112.501C42.4842 116.183 46.5 116.965 50.1017 118.5C44.9392 129.531 36.9377 150.097 55.0061 158.712C64.0002 163 68.7641 164.308 68.7641 164.308C73.6367 168.469 89.5953 171.984 104.449 166.752C126.071 159.136 125.752 158.699 136.5 152C121.18 147.713 119.731 135.266 127.825 129.439C135.918 123.612 140.863 134.466 155.181 131.453C165.7 129.239 197.735 114.372 209.774 79.5033Z" fill="#E4E9FF"/>
<path d="M177.538 142.784C219.5 121.777 217.513 91.8438 209.774 79.5033C197.735 114.372 165.7 129.239 155.181 131.453C140.863 134.466 135.918 123.612 127.825 129.439C119.731 135.266 121.18 147.713 136.5 152C143.951 154.113 160.375 151.376 177.538 142.784Z" fill="#E4E9FF"/>
</g>
<path d="M204.774 74.5025C205 10.9992 136.479 27.2445 93.6289 55.4993C87.3406 43.3798 72.1963 25.9212 69.4998 26.9998C66.2741 28.2902 62.7641 34.4998 57.0472 44.4995C37.0472 30.9995 8.50001 10.4997 27.8674 52.4994C27.8789 53.6835 25.6172 57.0361 22.8674 65.3413C20.1177 73.6465 10.7499 91.4305 32.5 107.5C37.4842 111.182 41.5 111.964 45.1017 113.499M204.774 74.5025C212.513 86.843 214.5 116.776 172.538 137.783C155.375 146.376 138.951 149.112 131.5 147M204.774 74.5025C192.735 109.371 160.7 124.238 150.181 126.452C135.863 129.465 130.918 118.611 122.825 124.438C114.731 130.266 116.18 142.712 131.5 147M45.1017 113.499C39.9392 124.531 31.9377 145.097 50.0061 153.711C59.0002 157.999 63.7641 159.307 63.7641 159.307M45.1017 113.499C53.5712 114.458 65.3475 116.484 74.9015 113.964M63.7641 159.307C68.6367 163.469 84.5953 166.983 99.4488 161.751C121.071 154.135 120.752 153.698 131.5 147M63.7641 159.307C57.3998 151.213 58.4839 144.692 67.4998 140.161M90.8501 133.909C84.4156 135.049 74.1032 137.173 67.4998 140.161M67.4998 140.161C56.2998 135.159 53.1665 133.909 51.9998 133.909M95.2775 61.4906C103.258 79.9626 102.622 91.9112 92.6289 102.5" stroke="#00356F" stroke-width="3"/>
<path d="M26.0478 78.5768C37.768 69.9054 40.9782 78.548 42.3527 83.5173M42.3527 83.5173C33.0854 81.1694 30.6188 94.4774 36.3232 98.2208C42.082 102 43.082 97.8881 43.082 97.8881C44.0002 95.5 44.2853 89.1931 42.3527 83.5173Z" stroke="#00356F" stroke-width="3"/>
<path d="M64.0201 80.8665C57.5 92.9992 57.2146 98.2472 60.562 99.7726C63.0287 100.897 71.8106 101.018 75.0428 99.6131" stroke="#00356F" stroke-width="3"/>
<defs>
<filter id="filter0_iig_432_40" x="13.496" y="21.9502" width="210.689" height="157.43" filterUnits="userSpaceOnUse" color-interpolation-filters="sRGB">
<feFlood flood-opacity="0" result="BackgroundImageFix"/>
<feBlend mode="normal" in="SourceGraphic" in2="BackgroundImageFix" result="shape"/>
<feColorMatrix in="SourceAlpha" type="matrix" values="0 0 0 0 0 0 0 0 0 0 0 0 0 0 0 0 0 0 127 0" result="hardAlpha"/>
<feOffset dy="4"/>
<feGaussianBlur stdDeviation="5"/>
<feComposite in2="hardAlpha" operator="arithmetic" k2="-1" k3="1"/>
<feColorMatrix type="matrix" values="0 0 0 0 0.0676033 0 0 0 0 0.120441 0 0 0 0 0.355807 0 0 0 0.4 0"/>
<feBlend mode="normal" in2="shape" result="effect1_innerShadow_432_40"/>
<feColorMatrix in="SourceAlpha" type="matrix" values="0 0 0 0 0 0 0 0 0 0 0 0 0 0 0 0 0 0 127 0" result="hardAlpha"/>
<feOffset dy="-4"/>
<feGaussianBlur stdDeviation="5"/>
<feComposite in2="hardAlpha" operator="arithmetic" k2="-1" k3="1"/>
<feColorMatrix type="matrix" values="0 0 0 0 0.0676033 0 0 0 0 0.120441 0 0 0 0 0.355807 0 0 0 0.4 0"/>
<feBlend mode="normal" in2="effect1_innerShadow_432_40" result="effect2_innerShadow_432_40"/>
<feTurbulence type="fractalNoise" baseFrequency="1 1" numOctaves="3" seed="1209" result="displacementX" />
<feTurbulence type="fractalNoise" baseFrequency="1 1" numOctaves="3" seed="1210" result="displacementY" />
<feColorMatrix in="displacementX" type="matrix" values="0 0 0 1 0  0 0 0 0 0  0 0 0 0 0  0 0 0 0 1" result="displacementXRed" />
<feColorMatrix in="displacementY" type="matrix" values="0 0 0 0 0  0 0 0 1 0  0 0 0 0 0  0 0 0 0 1" />
<feComposite in="displacementXRed" operator="arithmetic" k1="0" k2="1" k3="1" k4="0"/>
<feDisplacementMap in="effect2_innerShadow_432_40" scale="20" xChannelSelector="R" yChannelSelector="G" width="100%" height="100%" />
<feColorMatrix  type="matrix" values="0 0 0 0 0  0 0 0 0 0  0 0 0 0 0  0 0 0 1 0" />
<feComponentTransfer result="sourceDisplacedAlpha">
<feFuncA type="gamma" exponent="0.2" />
</feComponentTransfer>
<feColorMatrix in="effect2_innerShadow_432_40" type="matrix" values="0 0 0 0 0  0 0 0 0 0  0 0 0 0 0  0 0 0 1 0" />
<feComponentTransfer result="inputSourceAlpha">
<feFuncA type="gamma" exponent="0.2" />
</feComponentTransfer>
<feComposite in="sourceDisplacedAlpha" operator="arithmetic" k1="1" k2="0" k3="0" k4="0" result="displacementAlphasMultiplied"/>
<feComposite in="displacementAlphasMultiplied"  operator="arithmetic" k1="0" k2="0" k3="-0.5" k4="0.5" result="centeringAdjustment"/>
<feComposite in="displacementX" in2="displacementAlphasMultiplied" operator="arithmetic" k1="1" k2="0" k3="0" k4="0" />
<feComposite in="centeringAdjustment" operator="arithmetic" k1="0" k2="1" k3="1" k4="0" />
<feColorMatrix  type="matrix" values="0 0 0 1 0  0 0 0 0 0  0 0 0 0 0  0 0 0 0 1" result="displacementXFinal" />
<feComposite in="displacementY" in2="displacementAlphasMultiplied" operator="arithmetic" k1="1" k2="0" k3="0" k4="0" />
<feComposite in="centeringAdjustment" operator="arithmetic" k1="0" k2="1" k3="1" k4="0" />
<feColorMatrix  type="matrix" values="0 0 0 0 0  0 0 0 1 0  0 0 0 0 0  0 0 0 0 1" result="displacementYFinal" />
<feComposite in="displacementXFinal" in2="displacementYFinal" operator="arithmetic" k1="0" k2="1" k3="1" k4="0" />
<feComposite in2="displacementAlphasMultiplied" operator="in" result="displacementMap" />
<feFlood flood-color="rgb(127, 127, 127)" flood-opacity="1"/>
<feComposite in2="displacementAlphasMultiplied" operator="out" />
<feComposite in2="displacementMap" operator="over" result="displacementMapWithBg"/>
<feDisplacementMap in="effect2_innerShadow_432_40" scale="20" xChannelSelector="R" yChannelSelector="G" width="100%" height="100%" result="displacedImage" />
<feColorMatrix in="effect2_innerShadow_432_40" type="matrix" values="1 0 0 0 0  0 1 0 0 0  0 0 1 0 0  0 0 0 127 0" result="imageOpaque" />
<feDisplacementMap in="imageOpaque" in2="displacementMapWithBg" scale="20" xChannelSelector="R" yChannelSelector="G" width="100%" height="100%" result="displacedImageOpaque" />
<feColorMatrix in="displacedImage" type="matrix" values="0 0 0 1 0  0 0 0 0 0  0 0 0 0 0  0 0 0 127 0" result="displacedImageRed" />
<feColorMatrix in="effect2_innerShadow_432_40" type="matrix" values="0 0 0 1 0  0 0 0 0 0  0 0 0 0 0  0 0 0 127 0" />
<feComposite in="displacedImageRed"  operator="atop" result="transparencyRedMap"/>
<feColorMatrix in="transparencyRedMap" type="matrix" values="0 0 0 0 0  0 0 0 0 0  0 0 0 0 0  1 0 0 0 0" result="transparencyAlphaMap" />
<feComposite in="displacedImageOpaque" in2="imageOpaque" operator="over" />
<feComposite in2="transparencyAlphaMap" operator="in" result="effect3_texture_432_40"/>
</filter>
</defs>
</svg>
