<svg width="229" height="181" viewBox="0 0 229 181" fill="none" xmlns="http://www.w3.org/2000/svg">
<g filter="url(#filter0_iig_432_40)">
<path d="M210.774 80.5025C211 13.9992 142.479 29.2445 99.6289 61.4993C93.3406 49.3798 78.1963 31.9212 75.4998 32.9998C72.2741 34.2902 68.7641 40.4998 63.0472 50.4995C43.0472 36.9995 14.5 16.4997 33.8674 58.4994C33.8789 59.6835 31.6172 63.0361 28.8674 71.3413C26.1177 79.6465 16.7499 97.4305 38.5 113.5C43.4842 117.182 47.5 117.964 51.1017 119.499C45.9392 130.531 37.9377 151.097 56.0061 159.711C65.0002 163.999 69.7641 165.307 69.7641 165.307C74.6367 169.469 88.8802 172.122 104.449 169.751C120.5 167.307 125.752 158.698 136.5 152C121.18 147.712 120.731 136.266 128.825 130.438C136.918 124.611 141.863 135.465 156.181 132.452C166.7 130.238 198.735 115.371 210.774 80.5025Z" fill="#E4E9FF"/>
<path d="M178.538 143.783C220.5 122.776 218.513 92.843 210.774 80.5025C198.735 115.371 166.7 130.238 156.181 132.452C141.863 135.465 136.918 124.611 128.825 130.438C120.731 136.266 121.18 147.712 136.5 152C143.951 154.112 161.375 152.376 178.538 143.783Z" fill="#E4E9FF"/>
</g>
<path d="M205.774 75.5025C206 8.99922 137.479 24.2445 94.6289 56.4993C88.3406 44.3798 73.1963 26.9212 70.4998 27.9998C67.2741 29.2902 63.7641 35.4998 58.0472 45.4995C38.0472 31.9995 9.50001 11.4997 28.8674 53.4994C28.8789 54.6835 26.6172 58.0361 23.8674 66.3413C21.1177 74.6465 11.7499 92.4305 33.5 108.5C38.4842 112.182 42.5 112.964 46.1017 114.499M205.774 75.5025C213.513 87.843 215.5 117.776 173.538 138.783C156.375 147.376 138.951 149.112 131.5 147M205.774 75.5025C193.735 110.371 161.7 125.238 151.181 127.452C136.863 130.465 131.918 119.611 123.825 125.438C115.731 131.266 116.18 142.712 131.5 147M46.1017 114.499C40.9392 125.531 32.9377 146.097 51.0061 154.711C60.0002 158.999 64.7641 160.307 64.7641 160.307M46.1017 114.499C54.5712 115.458 66.3475 117.484 75.9015 114.964M64.7641 160.307C69.6367 164.469 83.8802 167.122 99.4488 164.751C115.5 162.307 120.752 153.698 131.5 147M64.7641 160.307C58.3998 152.213 59.4839 145.692 68.4998 141.161M91.8501 134.909C85.4156 136.049 75.1032 138.173 68.4998 141.161M68.4998 141.161C57.2998 136.159 54.1665 134.909 52.9998 134.909M96.2775 62.4906C104.258 80.9626 103.622 92.9112 93.6289 103.5" stroke="#00356F" stroke-width="3"/>
<path d="M28.0478 79.5773C38.768 69.9059 40.9782 77.5485 42.3527 83.5178M42.3527 83.5178C32.0854 80.1699 28.3746 93.9536 36.3232 98.2213C41.205 100.842 43.082 97.8886 43.082 97.8886C44.0002 95.5005 44.2853 89.1936 42.3527 83.5178Z" stroke="#00356F" stroke-width="3"/>
<path d="M64.0201 79.8663C56.5 91.999 55.2146 98.247 59.562 99.7724C62.1198 100.67 70.8106 101.017 74.0428 99.6129" stroke="#00356F" stroke-width="3"/>
<defs>
<filter id="filter0_iig_432_40" x="14.496" y="22.9521" width="210.689" height="157.691" filterUnits="userSpaceOnUse" color-interpolation-filters="sRGB">
<feFlood flood-opacity="0" result="BackgroundImageFix"/>
<feBlend mode="normal" in="SourceGraphic" in2="BackgroundImageFix" result="shape"/>
<feColorMatrix in="SourceAlpha" type="matrix" values="0 0 0 0 0 0 0 0 0 0 0 0 0 0 0 0 0 0 127 0" result="hardAlpha"/>
<feOffset dy="4"/>
<feGaussianBlur stdDeviation="5"/>
<feComposite in2="hardAlpha" operator="arithmetic" k2="-1" k3="1"/>
<feColorMatrix type="matrix" values="0 0 0 0 0.0676033 0 0 0 0 0.120441 0 0 0 0 0.355807 0 0 0 0.4 0"/>
<feBlend mode="normal" in2="shape" result="effect1_innerShadow_432_40"/>
<feColorMatrix in="SourceAlpha" type="matrix" values="0 0 0 0 0 0 0 0 0 0 0 0 0 0 0 0 0 0 127 0" result="hardAlpha"/>
<feOffset dy="-4"/>
<feGaussianBlur stdDeviation="5"/>
<feComposite in2="hardAlpha" operator="arithmetic" k2="-1" k3="1"/>
<feColorMatrix type="matrix" values="0 0 0 0 0.0676033 0 0 0 0 0.120441 0 0 0 0 0.355807 0 0 0 0.4 0"/>
<feBlend mode="normal" in2="effect1_innerShadow_432_40" result="effect2_innerShadow_432_40"/>
<feTurbulence type="fractalNoise" baseFrequency="1 1" numOctaves="3" seed="1209" result="displacementX" />
<feTurbulence type="fractalNoise" baseFrequency="1 1" numOctaves="3" seed="1210" result="displacementY" />
<feColorMatrix in="displacementX" type="matrix" values="0 0 0 1 0  0 0 0 0 0  0 0 0 0 0  0 0 0 0 1" result="displacementXRed" />
<feColorMatrix in="displacementY" type="matrix" values="0 0 0 0 0  0 0 0 1 0  0 0 0 0 0  0 0 0 0 1" />
<feComposite in="displacementXRed" operator="arithmetic" k1="0" k2="1" k3="1" k4="0"/>
<feDisplacementMap in="effect2_innerShadow_432_40" scale="20" xChannelSelector="R" yChannelSelector="G" width="100%" height="100%" />
<feColorMatrix  type="matrix" values="0 0 0 0 0  0 0 0 0 0  0 0 0 0 0  0 0 0 1 0" />
<feComponentTransfer result="sourceDisplacedAlpha">
<feFuncA type="gamma" exponent="0.2" />
</feComponentTransfer>
<feColorMatrix in="effect2_innerShadow_432_40" type="matrix" values="0 0 0 0 0  0 0 0 0 0  0 0 0 0 0  0 0 0 1 0" />
<feComponentTransfer result="inputSourceAlpha">
<feFuncA type="gamma" exponent="0.2" />
</feComponentTransfer>
<feComposite in="sourceDisplacedAlpha" operator="arithmetic" k1="1" k2="0" k3="0" k4="0" result="displacementAlphasMultiplied"/>
<feComposite in="displacementAlphasMultiplied"  operator="arithmetic" k1="0" k2="0" k3="-0.5" k4="0.5" result="centeringAdjustment"/>
<feComposite in="displacementX" in2="displacementAlphasMultiplied" operator="arithmetic" k1="1" k2="0" k3="0" k4="0" />
<feComposite in="centeringAdjustment" operator="arithmetic" k1="0" k2="1" k3="1" k4="0" />
<feColorMatrix  type="matrix" values="0 0 0 1 0  0 0 0 0 0  0 0 0 0 0  0 0 0 0 1" result="displacementXFinal" />
<feComposite in="displacementY" in2="displacementAlphasMultiplied" operator="arithmetic" k1="1" k2="0" k3="0" k4="0" />
<feComposite in="centeringAdjustment" operator="arithmetic" k1="0" k2="1" k3="1" k4="0" />
<feColorMatrix  type="matrix" values="0 0 0 0 0  0 0 0 1 0  0 0 0 0 0  0 0 0 0 1" result="displacementYFinal" />
<feComposite in="displacementXFinal" in2="displacementYFinal" operator="arithmetic" k1="0" k2="1" k3="1" k4="0" />
<feComposite in2="displacementAlphasMultiplied" operator="in" result="displacementMap" />
<feFlood flood-color="rgb(127, 127, 127)" flood-opacity="1"/>
<feComposite in2="displacementAlphasMultiplied" operator="out" />
<feComposite in2="displacementMap" operator="over" result="displacementMapWithBg"/>
<feDisplacementMap in="effect2_innerShadow_432_40" scale="20" xChannelSelector="R" yChannelSelector="G" width="100%" height="100%" result="displacedImage" />
<feColorMatrix in="effect2_innerShadow_432_40" type="matrix" values="1 0 0 0 0  0 1 0 0 0  0 0 1 0 0  0 0 0 127 0" result="imageOpaque" />
<feDisplacementMap in="imageOpaque" in2="displacementMapWithBg" scale="20" xChannelSelector="R" yChannelSelector="G" width="100%" height="100%" result="displacedImageOpaque" />
<feColorMatrix in="displacedImage" type="matrix" values="0 0 0 1 0  0 0 0 0 0  0 0 0 0 0  0 0 0 127 0" result="displacedImageRed" />
<feColorMatrix in="effect2_innerShadow_432_40" type="matrix" values="0 0 0 1 0  0 0 0 0 0  0 0 0 0 0  0 0 0 127 0" />
<feComposite in="displacedImageRed"  operator="atop" result="transparencyRedMap"/>
<feColorMatrix in="transparencyRedMap" type="matrix" values="0 0 0 0 0  0 0 0 0 0  0 0 0 0 0  1 0 0 0 0" result="transparencyAlphaMap" />
<feComposite in="displacedImageOpaque" in2="imageOpaque" operator="over" />
<feComposite in2="transparencyAlphaMap" operator="in" result="effect3_texture_432_40"/>
</filter>
</defs>
</svg>
