<svg xmlns="http://www.w3.org/2000/svg" version="1.1" xmlns:xlink="http://www.w3.org/1999/xlink" width="26" height="26"><svg width="26" height="26" viewBox="0 0 26 26" fill="none" xmlns="http://www.w3.org/2000/svg">
<path d="M10.4484 24.8508C-0.859426 23.383 -0.747277 12.5032 6.7636 8.05677C7.40958 5.81817 9.47997 1.18142 10.616 1.49933C11.752 1.81723 13.1879 5.86859 13.1673 8.21671C14.6429 6.30305 18.042 1.53327 18.9086 2.09284C19.7753 2.65241 20.8823 6.69936 21.0075 9.30498C21.0075 9.30498 21.9653 10.3754 22.4135 10.8506C27.8818 16.6486 23.0127 26.4816 10.4484 24.8508Z" fill="#E4E9FF" stroke="#111F5B" stroke-width="1.5" stroke-linejoin="round"></path>
<path d="M16.5 11.9998C15.5 13.8942 14.6916 16.3201 14.6391 17.2883C14.9669 18.3312 18.5 18.0899 20 18.0899M5.54997 13.8942C7.08175 11.7249 10.0204 10.6069 10.6154 14.4894M10.6154 14.4894C10.7668 15.4776 10.8107 16.1527 10.621 17.8534C7.93486 19.6197 6.56769 18.7547 6.12324 18.0899C5.27993 16.8285 8.11892 12.7522 10.6154 14.4894Z" stroke="#111F5B" stroke-width="1.5" stroke-linejoin="round"></path>
</svg><style>@media (prefers-color-scheme: light) { :root { filter: none; } }
@media (prefers-color-scheme: dark) { :root { filter: none; } }
</style></svg>