<svg width="370" height="312" viewBox="0 0 370 312" fill="none" xmlns="http://www.w3.org/2000/svg">
<g clip-path="url(#clip0_10081_71)">
<path d="M124.716 251.664H159.168L160.15 261.988C162.312 261.64 171.226 263.938 171.226 260.804V240.347L261.112 239.598C263.284 240.32 262.25 243.786 262.749 245.778C270.948 278.797 314.841 272.338 314.194 239.476C330.353 237.151 366.321 247.79 368.501 223.415C370.749 198.283 368.31 166.597 368.431 140.647C368.525 118.962 372.342 84.4468 365.829 64.129C359.155 43.2889 333.945 43.5763 315.918 43.6284L316.736 1.00823L147.652 0.216064L146.24 2.27048L145.008 42.8102C144.052 44.1943 133.613 43.6719 131.133 43.6719C120.806 43.6719 115.672 42.8102 105.457 47.2324C72.6757 61.4305 67.2496 102.414 58.8431 133.309C57.5943 134.971 51.7115 133.909 49.3602 134.17C31.6172 136.146 14.9165 146.915 8.1897 163.942C2.02274 179.558 0.412096 215.789 1.51457 232.991C1.60931 234.489 2.35001 240.217 3.21131 240.851L51.5048 241.226C52.4953 276.646 102.753 275.742 103.175 240.356L111.745 240.407L112.64 262.127C122.649 262.589 126.051 263.268 124.707 251.671L124.716 251.664Z" fill="white"/>
<path d="M124.716 251.664C126.059 263.25 122.657 262.58 112.649 262.118L111.753 240.398L103.183 240.347C102.761 275.733 52.4951 276.638 51.5131 241.218L3.21968 240.843C2.35836 240.217 1.62623 234.489 1.52287 232.982C0.420397 215.78 2.03104 179.55 8.198 163.933C14.9248 146.897 31.617 136.129 49.3685 134.162C51.7198 133.901 57.6026 134.963 58.8514 133.3C67.2579 102.406 72.6841 61.4219 105.465 47.2239C115.68 42.8016 120.814 43.6546 131.141 43.6634C133.621 43.6634 144.061 44.1857 145.017 42.8016L146.248 2.26191L147.661 0.20752L316.744 0.999663L315.926 43.62C333.954 43.5765 359.164 43.2804 365.838 64.1205C372.35 84.447 368.534 118.954 368.44 140.638C368.318 166.588 370.757 198.275 368.508 223.406C366.329 247.79 330.37 237.142 314.203 239.467C314.849 272.33 270.948 278.797 262.757 245.771C262.266 243.777 263.291 240.311 261.121 239.59L171.235 240.338V260.796C171.235 263.929 162.32 261.631 160.158 261.979L159.177 251.655H124.724L124.716 251.664ZM313.35 3.55896L149.694 2.68846L147.971 53.1868L311.067 52.1944L312.101 51.4981L313.341 3.55896H313.35ZM111.796 196.821V183.328C111.796 183.015 112.674 181.919 112.804 181.291C125.482 180.769 138.307 181.492 151.02 181.187C157.109 181.039 165.542 178.384 171.226 181.588V196.821H362.006L363.34 193.817C361.834 159.616 365.718 125.23 364.149 91.0629C363.642 79.9986 363.177 61.8136 353.246 55.0758C345.658 49.9311 326.976 47.6591 318.037 48.7908C312.73 49.4697 317.012 54.1182 312.91 54.9278C306.726 56.1466 294.178 54.6928 287.03 54.8844C245.746 56.0247 204.327 54.8583 163.001 55.7549C159.177 55.842 145.861 59.0019 144.638 54.2924L145.378 48.8342C132.967 49.7831 120.934 46.3447 109.221 51.0193C98.5663 55.2674 85.8017 66.4883 82.5029 77.5524C88.8767 77.2565 92.8214 82.5144 93.6311 88.5122C94.6473 96.0421 94.3115 118.292 92.4683 125.483C90.9782 131.298 87.8516 134.719 81.8569 135.65C76.7752 136.434 68.033 134.797 64.1744 135.868C63.3217 136.103 63.158 137.792 62.2106 138.393C59.7731 139.942 47.9387 139.455 42.8829 140.656C15.4502 147.159 7.69846 172.107 8.06883 197.692L111.796 196.812V196.821ZM65.2854 130.662H81.2196C83.9069 130.662 86.5511 127.137 87.2918 124.612C89.2039 118.153 89.9877 93.5089 88.3427 86.893C87.4728 83.3849 83.7604 81.5743 80.3325 81.8353C78.5495 81.9747 79.3936 82.1314 78.9457 83.1151C76.6978 88.0944 63.5371 128.904 65.2768 130.645L65.2854 130.662ZM167.781 184.634H115.241V257.321C115.241 259.315 119.978 258.087 121.167 257.661C121.83 255.407 120.013 249.192 122.683 248.303L161.218 247.25C163.13 247.537 162.57 256.791 162.613 258.627H167.79V184.625L167.781 184.634ZM363.298 200.304L171.226 201.173V223.373C175.257 225.557 182.38 224.851 187.196 224.713C213.783 223.929 240.587 223.373 267.305 223.851C274.411 219.672 279.597 214.884 288.803 215.041C298.614 215.197 306.676 223.808 307.743 223.808H363.298V200.304ZM111.796 201.173H7.57788C8.0516 202.288 6.71658 203.75 6.71658 204.221V223.373L8.00854 224.677H57.1031C57.439 224.677 60.7893 220.717 61.8919 219.942C69.7557 214.467 80.2291 213.605 88.868 217.819C91.3486 219.027 97.0332 224.677 97.5844 224.677H111.796V201.173ZM75.4144 229.212C59.6267 231.546 62.0986 255.302 77.6452 254.84C94.8111 254.326 92.6578 226.662 75.4144 229.212ZM265.109 229.038L171.226 229.9V235.132L262.818 234.297L265.109 229.038ZM286.434 229.221C271.069 231.468 272.921 255.32 288.666 254.849C306.141 254.326 303.963 226.662 286.434 229.221ZM360.713 229.029H311.62L313.48 234.114C326.597 233.261 343.513 236.456 356.02 232.564C356.692 232.355 362.419 230.405 360.713 229.029ZM53.2271 229.9H8.00854C6.25147 229.9 6.25147 235.994 8.00854 235.994H51.0738L53.2271 229.9ZM111.805 229.891L100.608 229.909L102.442 235.01L103.588 235.184L111.805 235.132V229.9V229.891Z" fill="black"/>
<path d="M111.796 196.821L8.06916 197.7C7.6988 172.116 15.4592 147.167 42.8831 140.664C47.9391 139.463 59.7734 139.951 62.2108 138.401C63.1669 137.792 63.3221 136.112 64.1746 135.877C68.0334 134.806 76.7756 136.451 81.8573 135.659C87.852 134.727 90.9786 131.298 92.4685 125.491C94.3117 118.301 94.6477 96.0508 93.6313 88.5209C92.8217 82.5229 88.8769 77.2651 82.5033 77.5611C85.8021 66.4968 98.5667 55.2846 109.221 51.0278C120.935 46.3531 143.053 48.9735 145.379 48.8429L144.698 53.857C144.664 54.1095 144.561 54.3444 144.388 54.5273C141.882 57.2346 159.28 55.8418 163.001 55.7634C204.327 54.8668 245.746 56.0333 287.03 54.8929C294.178 54.6926 309.172 55.4675 315.358 54.2487C319.458 53.4391 310.75 48.8342 318.028 48.7906C327.037 48.7471 345.65 49.9224 353.237 55.0758C363.168 61.8134 363.634 79.9985 364.143 91.0626C365.71 125.23 361.834 159.615 363.333 193.817L361.997 196.821H171.218V181.588C161.899 180.873 174.922 181.074 151.012 181.186C138.299 181.248 125.465 180.769 112.795 181.291C112.666 181.919 111.788 183.015 111.788 183.328V196.821H111.796ZM332.291 104.547C339.957 106.488 348.992 99.6895 350.835 92.3858C351.583 89.4088 351.722 65.6437 350.8 63.6502C350.611 63.2411 349.242 61.8918 349.094 61.8918H176.834L175.542 63.1975V95.4065C175.542 95.7547 178.754 100.386 179.4 101.082C183.079 105.026 189.176 107.959 194.49 105.417V166.353L185.394 167.171L185.877 184.643C227.84 186.749 270.045 184.764 312.101 185.469C316.649 185.548 336.563 188.437 338.776 184.643C339.483 183.424 339.518 171.263 339.026 169.574C338.182 166.667 334.607 167.128 332.309 167.224V104.547H332.291ZM136.593 74.3402C131.313 74.4358 114.303 75.585 110.478 78.4141C108.093 80.1725 107.714 83.0278 107.455 85.8047C106.629 94.7797 106.663 112.547 107.455 121.565C107.645 123.724 107.989 125.892 109.04 127.798C114.621 137.94 145.086 136.521 155.06 134.78C163.724 133.274 168.539 131.202 169.495 121.513C170.4 112.39 169.831 95.9463 168.565 86.7797C168.108 83.4805 166.222 79.894 163.432 78.0398C158.169 74.5577 143.217 74.2183 136.593 74.3402ZM133.57 166.101C134.836 167.11 139.694 167.903 141.529 168.085C145.973 168.521 154.483 169.208 158.729 168.956C162.338 168.738 169.762 167.18 169.521 162.523C169.047 153.208 142.269 152.747 136.163 155.733C132.192 157.665 129.47 162.828 133.57 166.109V166.101Z" fill="white"/>
<path d="M363.298 200.304V223.808H307.743C306.685 223.808 298.623 215.197 288.803 215.041C279.597 214.893 274.412 219.672 267.305 223.85C240.587 223.372 213.784 223.929 187.196 224.712C182.381 224.851 175.257 225.557 171.226 223.372V201.173L363.298 200.304Z" fill="#F5BFE4"/>
<path d="M313.35 3.55898L312.11 51.498L311.076 52.1945L147.98 53.1869L149.702 2.68848L313.359 3.55898H313.35ZM235.832 26.201C236.272 12.5601 221.138 8.39033 212.578 17.9399C206.411 24.8082 207.521 35.707 199.244 39.2673C197.987 38.3272 197.919 37.9442 198.091 36.4382C198.926 28.8995 210.183 14.6493 206.979 7.92026C206.54 6.9975 204.353 5.6134 203.337 5.45672C198.056 4.62972 188.271 20.9779 183.301 23.5982C183.836 19.8115 187.746 6.57966 180.425 7.26737C174.395 7.83321 170.959 17.4698 167.626 22.1358C162.734 28.9779 157.678 35.8028 151.873 41.8964C149.849 47.7635 152.527 52.5601 158.806 49.7832C162.002 48.373 172.889 32.5295 173.801 33.1825C174.835 37.7526 178.418 38.2575 182.457 37.126C183.956 36.7081 187.694 33.4263 188.452 34.0704C185.971 38.8495 188.66 50.0007 194.233 51.2805C201.751 53.0128 204.051 48.103 206.962 48.0161C208.642 47.9638 211.44 50.7756 214.06 51.2631C221.182 52.5949 226.091 49.6961 231.94 46.2401C232.44 46.2314 231.992 53.4567 238.735 51.5242C239.717 51.2457 246.109 36.2988 248.383 33.2608C251.027 29.7352 255.006 26.14 259.063 24.4774C260.579 26.4272 247.693 47.128 257.374 50.0878C264.239 52.1858 267.581 47.9029 273.23 45.3174C278.846 56.0161 286.952 50.5579 293.083 43.8288C296.763 46.1358 299.346 47.8245 303.911 46.7363C311.792 44.8647 310.956 34.201 302.128 35.7854C300.586 34.3142 312.497 19.0105 304.962 16.7821C296.341 14.2402 292.291 35.1934 284.471 37.5264C284.506 33.3131 288.364 29.2825 289.639 25.3392C291.197 20.4991 291.491 13.6656 284.514 14.8843C281.362 15.4328 275.082 28.7255 272.344 32.2336C270.586 34.4882 268.304 36.2903 266.383 38.3969C266.324 35.0018 268.872 31.7809 269.329 28.3162C270.371 20.3075 269.046 12.917 259.578 14.0922C256.952 14.423 254.515 16.4774 252.535 16.6689C250.966 16.8256 251.543 15.102 250.742 14.9017C240.156 12.325 242.19 21.5351 235.824 26.201H235.832Z" fill="white"/>
<path d="M167.781 184.634V258.627H162.604C162.57 256.791 163.121 247.537 161.209 247.249L122.674 248.303C120.004 249.183 121.822 255.398 121.158 257.66C119.97 258.096 115.233 259.324 115.233 257.321V184.634H167.772H167.781ZM158.307 193.339H123.854V196.821H158.307V193.339ZM125.146 207.267H158.307V203.786C149.857 203.533 141.322 204.09 132.864 203.819C130.857 203.75 127.669 203.434 126.807 206.158C126.48 207.203 124.208 206.997 125.146 207.267ZM158.307 215.101H123.854V218.585H158.307V215.101ZM158.307 225.548H123.854V229.029H158.307V225.548Z" fill="white"/>
<path d="M111.796 201.173V224.677H97.5846C97.0335 224.677 91.3488 219.027 88.8683 217.819C80.2294 213.614 69.7558 214.467 61.8921 219.942C60.7811 220.717 57.4391 224.677 57.1032 224.677H8.00876L6.7168 223.372V204.221C6.7168 203.75 8.05182 202.287 7.5781 201.173H111.796Z" fill="#F5BFE4"/>
<path d="M65.2856 130.662C63.5459 128.913 76.7066 88.1119 78.9546 83.1325C79.4026 82.1403 78.5583 81.9835 80.3413 81.8529C83.7693 81.5831 87.4729 83.4025 88.3515 86.9105C89.9966 93.5177 89.2128 118.171 87.3006 124.63C86.5514 127.146 83.9072 130.68 81.2284 130.68H65.2943L65.2856 130.662Z" fill="white"/>
<path d="M265.109 229.038L262.809 234.288L171.218 235.132V229.891L265.109 229.038Z" fill="white"/>
<path d="M286.434 229.221C303.963 226.662 306.141 254.326 288.666 254.849C272.921 255.32 271.069 231.468 286.434 229.221Z" fill="white"/>
<path d="M75.4145 229.212C92.6494 226.662 94.8112 254.328 77.6453 254.842C62.0987 255.302 59.6268 231.546 75.4145 229.212Z" fill="white"/>
<path d="M53.2274 229.9L51.0741 235.994H8.00872C6.25165 235.994 6.25165 229.9 8.00872 229.9H53.2274Z" fill="white"/>
<path d="M360.714 229.029C362.419 230.405 356.701 232.354 356.02 232.564C343.513 236.456 326.588 233.261 313.48 234.114L311.62 229.029H360.714Z" fill="white"/>
<path d="M111.805 229.891V235.132L103.579 235.186L102.434 235.012L100.599 229.909L111.805 229.891Z" fill="white"/>
<path d="M332.291 104.547V167.224C334.591 167.137 338.164 166.667 339.009 169.574C339.009 169.574 340.103 184.241 338.758 184.643C332.507 186.532 316.631 185.548 312.084 185.469C270.036 184.755 227.823 186.74 185.86 184.643L185.377 167.172L194.472 166.353V105.417C189.159 107.959 183.061 105.026 179.382 101.082C178.736 100.395 177.607 99.8788 176.315 95.9702L175.524 63.1976L176.817 61.8918H349.077C349.224 61.8918 350.593 63.2324 350.783 63.6502C351.705 65.6436 351.566 89.4086 350.817 92.3858C348.983 99.6894 339.94 106.497 332.274 104.547H332.291ZM203.095 65.3738H179.839C179.839 74.6434 179.382 88.4424 180.847 96.129C185.636 103.972 193.93 103.876 199.168 96.6514C199.882 95.6677 203.104 89.104 203.104 88.4424V65.3738H203.095ZM232.379 65.3738H206.54C207.702 73.6697 205.756 86.2574 209.279 93.5087C213.189 101.552 221.328 105.774 228.047 98.0006C228.769 97.165 232.37 91.5152 232.37 91.0538V65.3738H232.379ZM236.685 65.3738V89.3128C236.685 91.0886 241.242 98.2356 242.802 99.6719C249.88 106.192 256.806 101.613 260.397 94.1355C262.257 90.2704 262.163 85.7438 262.198 81.3215C262.215 79.0234 261.646 66.3401 260.836 65.7307L236.677 65.3651L236.685 65.3738ZM290.949 91.9245C292.309 85.0909 289.941 74.0267 290.949 66.6795L289.656 65.3738H265.971V87.5719C265.971 90.2878 271.198 98.9669 273.765 100.586C280.328 104.738 289.621 98.5837 290.949 91.9245ZM294.393 66.2443V87.5719C294.393 88.3379 298.597 96.9212 299.544 98.0355C303.41 102.588 309.44 103.528 314.168 99.7242C315.193 98.8972 319.371 92.6643 319.371 91.9245V67.55L318.078 66.2443H294.393ZM346.933 66.2443H322.817V87.5719C322.817 88.6862 326.571 95.4935 327.605 96.6601C331.998 101.596 337.459 102.405 342.54 97.931C351.575 89.9745 346.313 76.6295 346.933 66.2443ZM206.54 99.3238V166.353L278.028 167.224L277.538 154.984L288.235 154.288L289.225 167.232H291.801C290.818 163.158 291.801 154.288 297.042 154.288C302.254 154.166 302.731 157.961 302.816 158.266C302.816 160.839 302.679 164.455 303.006 167.224H305.59V152.852C305.59 152.608 306.478 150.823 307.046 150.649L317.649 151.546V167.215C319.604 167.467 320.853 167.145 321.137 165.013L320.224 99.3151C312.954 109.413 299.087 108.516 294.376 96.7121H293.109C285.289 110.162 271.853 109.1 264.679 95.8504C256.125 110.771 243.378 110.153 234.533 95.8417C230.527 102.945 224.18 108.429 215.548 105.452C211.786 104.155 210.141 100.351 206.549 99.3151L206.54 99.3238ZM198.789 103.241V166.353H202.234C202.103 143.685 202.164 121.026 203.087 98.4533C202.294 99.0017 198.874 102.928 198.789 103.241ZM327.985 167.224V102.37C327.985 102.101 326.236 100.743 325.822 100.203H324.539V167.224H327.985ZM314.203 154.166H309.035V167.224H314.203V154.166ZM285.789 157.639H280.613C280.931 159.781 279.795 165.709 281.422 166.841L285.781 167.224V157.639H285.789ZM299.57 159.38H295.255V167.224H299.57V159.38ZM334.874 171.576L188.436 171.158C190.364 174.205 187.54 180.429 191.458 181.16C238.916 180.49 286.142 182.414 333.573 182.031L335.633 180.655L334.874 171.576Z" fill="black"/>
<path d="M133.57 166.101C129.47 162.819 132.192 157.657 136.163 155.725C142.269 152.747 169.047 153.209 169.521 162.514C169.762 167.172 162.338 168.73 158.729 168.948C154.482 169.2 145.981 168.512 141.528 168.077C139.702 167.903 134.836 167.102 133.57 166.092V166.101ZM144.371 157.883C142.76 157.979 137.799 158.797 136.765 159.816L135.921 162.427L137.342 163.603C145.387 163.603 156.033 166.858 163.716 164.421C164.767 164.09 165.326 163.167 166.041 162.436C165.051 161.296 163.69 160.678 162.346 160.094C158.539 158.458 148.66 157.622 144.371 157.883Z" fill="black"/>
<path d="M136.593 74.3402C143.208 74.227 158.169 74.5666 163.432 78.0399C166.222 79.8853 168.117 83.4807 168.565 86.7799C169.831 95.955 170.391 112.399 169.495 121.513C168.539 131.202 163.724 133.265 155.06 134.78C145.094 136.512 114.621 137.94 109.04 127.798C107.989 125.892 107.645 123.724 107.455 121.566C106.672 112.547 106.629 94.7799 107.455 85.8049C107.714 83.028 108.093 80.1727 110.478 78.4142C114.303 75.5937 131.313 74.436 136.593 74.3402ZM112.856 82.114C111.9 83.472 111.891 85.0736 111.762 86.6667C111.28 92.4034 111.124 124.212 113.958 127.18C118.101 131.507 144.423 131.193 150.977 130.654C156.472 130.201 163.604 129.896 164.362 123.289C165.12 116.682 164.784 103.476 164.379 96.2509C164.198 92.9345 163.621 83.5763 161.373 81.8789C158.066 79.3979 137.911 79.0932 132.864 79.2674C129.651 79.3804 114.389 80.6254 112.864 82.1225L112.856 82.114Z" fill="black"/>
<path d="M235.832 26.2009C242.199 21.5263 240.165 12.3162 250.751 14.9016C251.551 15.0931 250.975 16.8167 252.542 16.6687C254.524 16.4685 256.969 14.4141 259.587 14.092C269.054 12.9081 270.388 20.3075 269.337 28.3162C268.881 31.7809 266.332 34.993 266.391 38.3968C268.313 36.2901 270.595 34.4881 272.353 32.2335C275.082 28.7253 281.362 15.4413 284.523 14.8842C291.499 13.6655 291.206 20.4991 289.647 25.339C288.372 29.2825 284.514 33.3129 284.48 37.5263C292.3 35.1932 296.349 14.24 304.97 16.7819C312.506 19.0105 300.595 34.314 302.137 35.7852C310.965 34.2009 311.801 44.8646 303.919 46.7362C299.346 47.8244 296.763 46.1268 293.092 43.8287C286.96 50.5491 278.855 56.0071 273.239 45.3173C267.581 47.9026 264.239 52.1856 257.383 50.0877C247.702 47.1279 260.588 26.4272 259.071 24.4772C255.006 26.1313 251.035 29.7351 248.392 33.2606C246.109 36.2988 239.725 51.2367 238.744 51.5241C232 53.4479 232.44 46.2313 231.948 46.24C226.1 49.696 221.191 52.5947 214.068 51.2628C211.449 50.7753 208.65 47.9636 206.971 48.0158C204.059 48.1029 201.759 53.0127 194.241 51.2802C188.667 49.9919 185.98 38.8494 188.46 34.0703C187.694 33.4348 183.965 36.7079 182.466 37.1257C178.418 38.2575 174.843 37.7525 173.81 33.1824C172.897 32.5295 162.01 48.3727 158.815 49.7829C152.527 52.5599 149.857 47.7635 151.881 41.8961C157.687 35.7939 162.742 28.9778 167.635 22.1355C170.968 17.4696 174.404 7.83307 180.433 7.26724C187.755 6.57952 183.836 19.8113 183.31 23.598C188.28 20.9778 198.073 4.62958 203.344 5.45658C204.362 5.61326 206.54 6.99736 206.988 7.92012C210.191 14.6492 198.935 28.8908 198.099 36.4381C197.936 37.9528 197.995 38.3271 199.253 39.2673C207.53 35.7068 206.42 24.8081 212.587 17.9397C221.147 8.3989 236.281 12.5599 235.841 26.2009H235.832ZM203.948 8.79062C201.459 5.96145 184.387 29.6829 181.131 29.709C177.108 29.7438 181.132 19.7503 181.467 16.9647C181.717 14.832 181.519 12.6644 181.554 10.5316C180.598 10.4098 179.848 10.5142 178.977 10.9669C177.143 11.9332 164.836 31.0931 162.088 34.8102C160.744 36.6295 152.252 45.4131 154 47.0844C157.833 47.7983 159.022 46.031 161.321 43.6112C163.922 40.8776 173.233 25.7916 174.258 25.3477C174.619 25.1911 176.394 25.0082 176.394 25.7655C175 43.4631 186.687 30.1791 193.173 25.3216C194.894 25.2867 191.278 32.4772 191.106 33.6786C189.021 47.9113 195.713 53.8396 206.962 43.585C210.322 45.5435 212.267 48.3988 216.54 48.7992C224.369 49.5393 234.309 39.0409 235.369 39.2673C238.624 39.9549 232.904 47.1628 236.246 48.8254C240.561 41.6873 248.814 21.7177 258.666 21.7874C268.519 21.857 254.239 40.6688 257.426 45.6742C261.68 52.3684 270.07 41.3564 273.308 40.1552C274.962 39.5371 275.617 46.1181 277.976 46.7275C284.16 51.2367 288.907 42.7057 293.222 39.3369C294.944 39.0321 296.521 43.0801 299.156 43.6025C305.96 44.9517 307.873 39.4587 306.021 39.2673C289.441 41.6438 306.925 22.3532 304.729 20.1246C297.089 21.7351 295.72 32.3901 290.276 37.5348C288.605 39.1192 282.963 43.0192 280.992 40.1987C278.846 37.1431 286.693 25.8961 287.33 21.2215C287.563 19.4979 287.865 18.671 286.22 17.5306C277.795 25.1563 275.082 42.4707 261.672 42.7579C260.355 41.4261 266.883 27.9245 266.848 24.0332C266.78 15.2324 261.138 15.6503 254.885 18.9234C250.811 21.0562 246.324 27.4196 248.753 17.5218C246.151 15.0235 238.461 29.6742 236.677 31.8505C235.145 33.7134 232.077 36.9604 230.216 38.3794C221.656 44.943 207.169 47.276 212.526 31.7983C217.048 31.1541 219.976 33.7744 224.859 32.9821C232.542 31.7373 235.815 26.3923 230.665 19.6894C224.111 11.1584 215.102 17.8003 211.303 25.3564C208.159 31.6241 209.192 38.5708 202.234 41.4348C195.275 44.2988 194.464 40.1116 195.558 33.8091C196.359 29.1867 206.505 11.6894 203.957 8.79933L203.948 8.79062ZM227.211 35.7852C223.025 36.7253 219.726 36.2291 215.653 35.0105L214.369 38.7362C215.515 42.2009 225.808 38.684 227.211 35.7852Z" fill="black"/>
<path d="M124.202 207.047C124.202 205.27 123.875 205.426 124.202 204.381C128.006 203.634 130.857 203.759 132.864 203.819C141.322 204.098 149.857 203.542 158.315 203.786V207.267H125.155L124.202 207.047Z" fill="black"/>
<path d="M158.307 193.339H123.854V196.821H158.307V193.339Z" fill="black"/>
<path d="M158.307 215.101H123.854V218.584H158.307V215.101Z" fill="black"/>
<path d="M158.307 225.548H123.854V229.029H158.307V225.548Z" fill="black"/>
<path d="M206.54 99.3238C210.132 100.36 211.777 104.164 215.54 105.461C224.171 108.438 230.519 102.954 234.524 95.8503C243.378 110.17 256.116 110.78 264.67 95.8591C271.844 109.1 285.28 110.17 293.101 96.7208H294.367C299.078 108.525 312.945 109.43 320.215 99.3325L321.129 165.03C320.844 167.154 319.595 167.476 317.641 167.232V151.563L307.037 150.666C306.469 150.841 305.582 152.634 305.582 152.869V167.232H302.997C302.67 164.473 303.011 159.887 302.254 157.284C302.167 156.98 300.516 155.507 297.911 154.619C292.7 154.619 290.801 163.167 291.793 167.241H289.217L288.227 154.297L277.53 154.993L278.019 167.232L206.531 166.362V99.3325L206.54 99.3238Z" fill="white"/>
<path d="M334.874 171.576L335.632 180.657L333.573 182.03C286.142 182.414 238.916 180.49 191.459 181.161C187.54 180.429 190.364 174.205 188.436 171.158L334.874 171.576Z" fill="white"/>
<path d="M232.379 65.3738V91.0538C232.379 91.5065 228.769 97.1648 228.055 98.0004C221.336 105.774 213.198 101.552 209.288 93.5087C205.765 86.2573 207.711 73.6784 206.549 65.3738H232.388H232.379Z" fill="white"/>
<path d="M236.685 65.3738L260.845 65.7394C261.654 66.3488 262.224 79.0408 262.207 81.3302C262.172 85.7523 262.266 90.2704 260.405 94.1442C256.806 101.622 249.889 106.201 242.81 99.6806C241.25 98.2443 236.694 91.0973 236.694 89.3215V65.3825L236.685 65.3738Z" fill="#F5BFE4"/>
<path d="M290.949 91.9243C289.621 98.5924 280.328 104.747 273.765 100.586C271.198 98.958 265.969 90.2878 265.969 87.5719V65.3738H289.656L290.949 66.6795C289.941 74.0266 292.309 85.0909 290.949 91.9243Z" fill="white"/>
<path d="M294.393 66.2446H318.078L319.371 67.5504V91.9247C319.371 92.6645 315.193 98.8974 314.168 99.7244C309.44 103.529 303.41 102.588 299.544 98.0356C298.597 96.9213 294.393 88.3382 294.393 87.5721V66.2446Z" fill="#F5BFE4"/>
<path d="M203.095 65.3738V88.4423C203.095 89.1038 199.873 95.6675 199.159 96.6512C193.93 103.876 185.377 104.373 180.657 96.6512C178.052 89.7499 178.92 74.6434 178.92 65.3738H203.087H203.095Z" fill="#F5BFE4"/>
<path d="M346.933 66.2446C346.313 76.6298 351.575 89.9834 342.54 97.9311C337.459 102.406 331.998 101.596 327.605 96.6602C326.562 95.4937 322.817 88.6864 322.817 87.5721V66.2446H346.933Z" fill="white"/>
<path d="M198.789 103.241C198.874 102.928 202.295 99.0018 203.087 98.4534C202.156 121.026 202.096 143.685 202.234 166.353H198.789V103.241Z" fill="white"/>
<path d="M327.983 167.224H324.539V100.195H325.822C326.236 100.743 327.983 102.101 327.983 102.371V167.224Z" fill="white"/>
<path d="M314.203 154.166H309.035V167.224H314.203V154.166Z" fill="#F5BFE4"/>
<path d="M285.789 157.639V167.224L281.422 166.841C279.795 165.709 280.931 159.781 280.613 157.639H285.789Z" fill="white"/>
<path d="M299.561 159.381H295.246V167.224H299.561V159.381Z" fill="#F5BFE4"/>
<path d="M112.856 82.1137C114.38 80.6251 129.642 79.3716 132.855 79.2584C137.902 79.0842 158.057 79.3803 161.364 81.87C163.621 83.5587 164.189 92.9254 164.37 96.2421C164.775 103.467 165.145 116.368 164.353 123.28C163.561 130.192 156.463 130.192 150.968 130.645C144.414 131.184 118.092 131.498 113.949 127.171C111.116 124.212 111.271 92.3944 111.753 86.6577C111.882 85.0648 111.891 83.4716 112.847 82.105L112.856 82.1137Z" fill="white"/>
<path d="M144.371 157.883C148.66 157.622 158.539 158.458 162.346 160.094C163.69 160.677 165.051 161.296 166.041 162.436C165.326 163.167 164.767 164.09 163.716 164.421C156.033 166.858 145.379 163.611 137.342 163.602L135.921 162.427L136.766 159.816C137.799 158.797 142.76 157.979 144.371 157.883Z" fill="white"/>
<path d="M203.948 8.79066C206.488 11.6808 196.35 29.178 195.549 33.8004C194.455 40.103 195.308 44.2727 202.225 41.4262C209.14 38.5796 208.15 31.6068 211.294 25.3478C215.093 17.7917 224.102 11.1497 230.656 19.6807C235.806 26.3837 232.534 31.72 224.85 32.9735C219.967 33.7656 217.039 31.1454 212.517 31.7895C207.16 47.2674 221.647 44.9342 230.208 38.3706C232.061 36.9516 235.136 33.7046 236.668 31.8417C238.461 29.6655 246.151 15.0061 248.744 17.5132C246.324 27.4109 250.803 21.0474 254.876 18.9147C261.13 15.6416 266.772 15.2237 266.839 24.0246C266.874 27.9159 260.346 41.4174 261.663 42.7493C275.073 42.4621 277.786 25.1477 286.211 17.5219C287.856 18.6622 287.554 19.4891 287.321 21.2129C286.684 25.8875 278.837 37.1345 280.983 40.1901C282.963 43.0105 288.596 39.1106 290.267 37.5262C295.712 32.3815 297.08 21.7265 304.72 20.116C306.916 22.3446 289.432 41.635 306.012 39.2585C307.864 39.4501 305.943 44.9429 299.147 43.5937C296.512 43.0713 294.935 39.0235 293.214 39.3281C288.899 42.697 284.144 51.2194 277.967 46.7189C275.608 46.1095 274.962 39.5371 273.3 40.1465C270.07 41.3478 261.672 52.3598 257.417 45.6655C254.23 40.66 268.219 21.8484 258.658 21.7787C249.097 21.7091 240.561 41.6872 236.237 48.8167C232.895 47.1541 238.615 39.9463 235.36 39.2585C234.3 39.0322 224.352 49.5307 216.532 48.7906C212.258 48.3815 210.304 45.5349 206.953 43.5762C195.704 53.8395 189.004 47.9027 191.097 33.6698C191.269 32.4686 194.894 25.2781 193.164 25.3129C186.678 30.1792 174.982 43.4632 176.386 25.7569C176.386 24.9996 174.61 25.1823 174.249 25.3391C173.224 25.783 163.914 40.869 161.313 43.6024C159.013 46.0224 157.816 47.7895 153.991 47.0758C152.243 45.4043 160.736 36.6209 162.079 34.8015C164.827 31.0845 177.134 11.9245 178.969 10.9582C179.839 10.4968 180.589 10.4011 181.545 10.523C181.51 12.6557 181.708 14.8233 181.458 16.9561C181.131 19.7417 177.1 29.7265 181.123 29.7004C184.378 29.6742 201.45 5.95278 203.939 8.78195L203.948 8.79066ZM223.542 21.1345C220.873 21.5349 217.831 24.6948 216.031 26.6361C218.64 30.1182 223.155 30.0224 226.332 27.4893C230.003 24.5731 227.461 20.5425 223.542 21.1345Z" fill="#CCE9FF"/>
<path d="M227.211 35.7852C225.808 38.684 215.515 42.2008 214.369 38.7363L215.653 35.0105C219.726 36.2291 223.025 36.7253 227.211 35.7852Z" fill="white"/>
<path d="M223.542 21.1346C227.461 20.5513 230.003 24.5732 226.332 27.4894C223.155 30.0225 218.642 30.1183 216.031 26.6362C217.831 24.6951 220.881 21.535 223.542 21.1346Z" fill="black"/>
<path d="M252.555 268.308L256.346 266.412L252.555 268.308Z" fill="black"/>
<path d="M252.555 268.308L256.346 266.412" stroke="black" stroke-width="1.5" stroke-linecap="round"/>
<path d="M252.584 272.07L256.051 273.478L252.584 272.07Z" fill="black"/>
<path d="M252.584 272.07L256.051 273.478" stroke="black" stroke-width="1.5" stroke-linecap="round"/>
<path d="M176.726 269.548L172.935 267.652L176.726 269.548Z" fill="black"/>
<path d="M176.726 269.548L172.935 267.652" stroke="black" stroke-width="1.5" stroke-linecap="round"/>
<path d="M176.697 273.311L173.231 274.719L176.697 273.311Z" fill="black"/>
<path d="M176.697 273.311L173.231 274.719" stroke="black" stroke-width="1.5" stroke-linecap="round"/>
<g clip-path="url(#clip1_10081_71)">
<path d="M185.808 273.33C185.189 273.33 184.642 273.195 184.168 272.927C183.701 272.653 183.335 272.269 183.072 271.775C182.815 271.282 182.687 270.706 182.687 270.047C182.687 269.389 182.815 268.816 183.072 268.328C183.335 267.835 183.701 267.454 184.168 267.186C184.642 266.911 185.189 266.774 185.808 266.774C186.479 266.774 187.062 266.93 187.556 267.24C188.049 267.545 188.405 267.969 188.622 268.511L188.02 268.722C187.842 268.295 187.566 267.96 187.19 267.716C186.815 267.472 186.354 267.35 185.808 267.35C185.307 267.35 184.869 267.46 184.494 267.679C184.125 267.899 183.839 268.21 183.635 268.612C183.431 269.014 183.328 269.493 183.328 270.047C183.328 270.602 183.431 271.083 183.635 271.492C183.839 271.894 184.125 272.205 184.494 272.424C184.869 272.644 185.307 272.754 185.808 272.754C186.354 272.754 186.815 272.632 187.19 272.388C187.566 272.138 187.842 271.803 188.02 271.382L188.622 271.583C188.405 272.126 188.049 272.552 187.556 272.863C187.062 273.174 186.479 273.33 185.808 273.33ZM192.367 273.238V266.866H193.009V272.699H196.18V273.238H192.367ZM199.678 273.238V266.866H200.32V273.238H199.678ZM207.306 273.33C206.687 273.33 206.141 273.195 205.667 272.927C205.199 272.653 204.834 272.269 204.571 271.775C204.314 271.282 204.185 270.706 204.185 270.047C204.185 269.389 204.314 268.816 204.571 268.328C204.834 267.835 205.199 267.454 205.667 267.186C206.141 266.911 206.687 266.774 207.306 266.774C207.978 266.774 208.561 266.93 209.054 267.24C209.548 267.545 209.904 267.969 210.121 268.511L209.519 268.722C209.341 268.295 209.064 267.96 208.689 267.716C208.314 267.472 207.853 267.35 207.306 267.35C206.806 267.35 206.368 267.46 205.993 267.679C205.624 267.899 205.338 268.21 205.134 268.612C204.929 269.014 204.827 269.493 204.827 270.047C204.827 270.602 204.929 271.083 205.134 271.492C205.338 271.894 205.624 272.205 205.993 272.424C206.368 272.644 206.806 272.754 207.306 272.754C207.853 272.754 208.314 272.632 208.689 272.388C209.064 272.138 209.341 271.803 209.519 271.382L210.121 271.583C209.904 272.126 209.548 272.552 209.054 272.863C208.561 273.174 207.978 273.33 207.306 273.33ZM214.37 271.154V270.386L218.004 266.866H218.873L214.37 271.154ZM213.866 273.238V266.866H214.508V273.238H213.866ZM218.143 273.238L215.723 269.691L216.207 269.279L218.903 273.238H218.143ZM227.485 273.238V266.866H228.453L230.803 272.132H230.675L233.035 266.866H233.984V273.238H233.342V267.551L233.381 267.56L231.06 272.708H230.418L228.087 267.56L228.127 267.551V273.238H227.485ZM238.133 273.238V266.866H242.637V267.405H238.775V269.727H242.242V270.267H238.775V272.699H242.637V273.238H238.133ZM247.681 266.689V269.301C247.681 269.437 247.678 269.571 247.672 269.702C247.668 269.833 247.662 269.966 247.652 270.1C247.643 270.234 247.63 270.371 247.614 270.51C247.601 270.647 247.585 270.795 247.565 270.952H246.967C246.945 270.795 246.926 270.647 246.909 270.51C246.897 270.371 246.886 270.234 246.876 270.1C246.866 269.966 246.858 269.833 246.852 269.702C246.849 269.571 246.847 269.437 246.847 269.301V266.689H247.681ZM246.635 272.734C246.635 272.656 246.649 272.583 246.678 272.515C246.71 272.443 246.754 272.382 246.808 272.332C246.863 272.278 246.927 272.237 247.001 272.207C247.079 272.174 247.16 272.158 247.247 272.158C247.334 272.158 247.414 272.174 247.488 272.207C247.565 272.237 247.631 272.278 247.686 272.332C247.744 272.382 247.787 272.443 247.816 272.515C247.849 272.583 247.865 272.656 247.865 272.734C247.865 272.817 247.849 272.893 247.816 272.961C247.787 273.03 247.744 273.091 247.686 273.144C247.631 273.195 247.565 273.234 247.488 273.26C247.414 273.29 247.334 273.305 247.247 273.305C247.16 273.305 247.079 273.29 247.001 273.26C246.927 273.234 246.863 273.195 246.808 273.144C246.754 273.091 246.71 273.03 246.678 272.961C246.649 272.893 246.635 272.817 246.635 272.734Z" fill="black"/>
<mask id="mask0_10081_71" style="mask-type:luminance" maskUnits="userSpaceOnUse" x="182" y="266" width="67" height="8">
<path d="M248.667 266H182V274H248.667V266Z" fill="white"/>
<path d="M185.808 273.33C185.189 273.33 184.642 273.195 184.168 272.927C183.701 272.653 183.335 272.269 183.072 271.775C182.815 271.282 182.687 270.706 182.687 270.047C182.687 269.389 182.815 268.816 183.072 268.328C183.335 267.835 183.701 267.454 184.168 267.186C184.642 266.911 185.189 266.774 185.808 266.774C186.479 266.774 187.062 266.93 187.556 267.24C188.049 267.545 188.405 267.969 188.622 268.511L188.02 268.722C187.842 268.295 187.566 267.96 187.19 267.716C186.815 267.472 186.354 267.35 185.808 267.35C185.307 267.35 184.869 267.46 184.494 267.679C184.125 267.899 183.839 268.21 183.635 268.612C183.431 269.014 183.328 269.493 183.328 270.047C183.328 270.602 183.431 271.083 183.635 271.492C183.839 271.894 184.125 272.205 184.494 272.424C184.869 272.644 185.307 272.754 185.808 272.754C186.354 272.754 186.815 272.632 187.19 272.388C187.566 272.138 187.842 271.803 188.02 271.382L188.622 271.583C188.405 272.126 188.049 272.552 187.556 272.863C187.062 273.174 186.479 273.33 185.808 273.33ZM192.367 273.238V266.866H193.009V272.699H196.18V273.238H192.367ZM199.678 273.238V266.866H200.32V273.238H199.678ZM207.306 273.33C206.687 273.33 206.141 273.195 205.667 272.927C205.199 272.653 204.834 272.269 204.571 271.775C204.314 271.282 204.185 270.706 204.185 270.047C204.185 269.389 204.314 268.816 204.571 268.328C204.834 267.835 205.199 267.454 205.667 267.186C206.141 266.911 206.687 266.774 207.306 266.774C207.978 266.774 208.561 266.93 209.054 267.24C209.548 267.545 209.904 267.969 210.121 268.511L209.519 268.722C209.341 268.295 209.064 267.96 208.689 267.716C208.314 267.472 207.853 267.35 207.306 267.35C206.806 267.35 206.368 267.46 205.993 267.679C205.624 267.899 205.338 268.21 205.134 268.612C204.929 269.014 204.827 269.493 204.827 270.047C204.827 270.602 204.929 271.083 205.134 271.492C205.338 271.894 205.624 272.205 205.993 272.424C206.368 272.644 206.806 272.754 207.306 272.754C207.853 272.754 208.314 272.632 208.689 272.388C209.064 272.138 209.341 271.803 209.519 271.382L210.121 271.583C209.904 272.126 209.548 272.552 209.054 272.863C208.561 273.174 207.978 273.33 207.306 273.33ZM214.37 271.154V270.386L218.004 266.866H218.873L214.37 271.154ZM213.866 273.238V266.866H214.508V273.238H213.866ZM218.143 273.238L215.723 269.691L216.207 269.279L218.903 273.238H218.143ZM227.485 273.238V266.866H228.453L230.803 272.132H230.675L233.035 266.866H233.984V273.238H233.342V267.551L233.381 267.56L231.06 272.708H230.418L228.087 267.56L228.127 267.551V273.238H227.485ZM238.133 273.238V266.866H242.637V267.405H238.775V269.727H242.242V270.267H238.775V272.699H242.637V273.238H238.133ZM247.681 266.689V269.301C247.681 269.437 247.678 269.571 247.672 269.702C247.668 269.833 247.662 269.966 247.652 270.1C247.643 270.234 247.63 270.371 247.614 270.51C247.601 270.647 247.585 270.795 247.565 270.952H246.967C246.945 270.795 246.926 270.647 246.909 270.51C246.897 270.371 246.886 270.234 246.876 270.1C246.866 269.966 246.858 269.833 246.852 269.702C246.849 269.571 246.847 269.437 246.847 269.301V266.689H247.681ZM246.635 272.734C246.635 272.656 246.649 272.583 246.678 272.515C246.71 272.443 246.754 272.382 246.808 272.332C246.863 272.278 246.927 272.237 247.001 272.207C247.079 272.174 247.16 272.158 247.247 272.158C247.334 272.158 247.414 272.174 247.488 272.207C247.565 272.237 247.631 272.278 247.686 272.332C247.744 272.382 247.787 272.443 247.816 272.515C247.849 272.583 247.865 272.656 247.865 272.734C247.865 272.817 247.849 272.893 247.816 272.961C247.787 273.03 247.744 273.091 247.686 273.144C247.631 273.195 247.565 273.234 247.488 273.26C247.414 273.29 247.334 273.305 247.247 273.305C247.16 273.305 247.079 273.29 247.001 273.26C246.927 273.234 246.863 273.195 246.808 273.144C246.754 273.091 246.71 273.03 246.678 272.961C246.649 272.893 246.635 272.817 246.635 272.734Z" fill="black"/>
</mask>
<g mask="url(#mask0_10081_71)">
<path d="M184.168 272.927L183.948 273.249L183.95 273.251L183.953 273.252L184.168 272.927ZM183.072 271.775L182.701 271.941L182.703 271.944L183.072 271.775ZM183.072 268.328L182.703 268.16L182.702 268.162L183.072 268.328ZM184.168 267.186L184.385 267.509L184.386 267.509L184.168 267.186ZM187.556 267.24L187.324 267.555L187.327 267.557L187.556 267.24ZM188.622 268.511L188.767 268.868L189.15 268.734L189.008 268.379L188.622 268.511ZM188.02 268.722L187.636 268.859L187.783 269.211L188.165 269.078L188.02 268.722ZM184.494 267.679L184.274 267.357L184.271 267.359L184.494 267.679ZM183.635 271.492L183.261 271.652L183.262 271.654L183.635 271.492ZM184.494 272.424L184.271 272.745L184.274 272.747L184.494 272.424ZM187.19 272.388L187.427 272.7L187.43 272.697L187.19 272.388ZM188.02 271.382L188.159 271.024L187.783 270.898L187.637 271.243L188.02 271.382ZM188.622 271.583L189.008 271.716L189.152 271.355L188.762 271.225L188.622 271.583ZM185.807 272.949C185.255 272.949 184.785 272.83 184.382 272.602L183.953 273.252C184.499 273.561 185.122 273.711 185.807 273.711V272.949ZM184.388 272.606C183.989 272.371 183.673 272.043 183.441 271.607L182.703 271.944C182.997 272.496 183.412 272.935 183.948 273.249L184.388 272.606ZM183.442 271.61C183.217 271.177 183.098 270.66 183.098 270.047H182.275C182.275 270.751 182.412 271.386 182.701 271.941L183.442 271.61ZM183.098 270.047C183.098 269.435 183.217 268.921 183.442 268.495L182.702 268.162C182.412 268.711 182.275 269.343 182.275 270.047H183.098ZM183.441 268.497C183.673 268.062 183.988 267.737 184.385 267.509L183.951 266.862C183.413 267.171 182.997 267.608 182.703 268.16L183.441 268.497ZM184.386 267.509C184.788 267.276 185.257 267.155 185.807 267.155V266.393C185.12 266.393 184.496 266.546 183.95 266.863L184.386 267.509ZM185.807 267.155C186.407 267.155 186.907 267.293 187.324 267.555L187.787 266.925C187.217 266.566 186.551 266.393 185.807 266.393V267.155ZM187.327 267.557C187.745 267.815 188.048 268.172 188.236 268.644L189.008 268.379C188.762 267.765 188.354 267.275 187.784 266.923L187.327 267.557ZM188.477 268.155L187.875 268.365L188.165 269.078L188.767 268.868L188.477 268.155ZM188.404 268.585C188.199 268.093 187.874 267.695 187.426 267.404L186.954 268.028C187.257 268.225 187.485 268.497 187.636 268.859L188.404 268.585ZM187.426 267.404C186.97 267.107 186.422 266.969 185.807 266.969V267.731C186.286 267.731 186.66 267.837 186.954 268.028L187.426 267.404ZM185.807 266.969C185.239 266.969 184.723 267.095 184.274 267.357L184.714 268.001C185.015 267.825 185.375 267.731 185.807 267.731V266.969ZM184.271 267.359C183.831 267.621 183.496 267.989 183.262 268.45L184.007 268.774C184.182 268.43 184.419 268.177 184.716 268L184.271 267.359ZM183.262 268.45C183.027 268.914 182.917 269.45 182.917 270.047H183.74C183.74 269.535 183.834 269.114 184.007 268.774L183.262 268.45ZM182.917 270.047C182.917 270.645 183.027 271.183 183.261 271.652L184.008 271.332C183.834 270.984 183.74 270.559 183.74 270.047H182.917ZM183.262 271.654C183.496 272.115 183.831 272.483 184.271 272.745L184.716 272.104C184.419 271.927 184.182 271.674 184.007 271.33L183.262 271.654ZM184.274 272.747C184.723 273.009 185.239 273.135 185.807 273.135V272.373C185.375 272.373 185.015 272.279 184.714 272.102L184.274 272.747ZM185.807 273.135C186.422 273.135 186.97 272.997 187.427 272.7L186.954 272.076C186.66 272.267 186.286 272.373 185.807 272.373V273.135ZM187.43 272.697C187.874 272.402 188.198 272.006 188.403 271.521L187.637 271.243C187.486 271.599 187.257 271.874 186.95 272.079L187.43 272.697ZM187.88 271.741L188.483 271.942L188.762 271.225L188.159 271.024L187.88 271.741ZM188.236 271.451C188.047 271.923 187.744 272.284 187.324 272.548L187.787 273.178C188.355 272.821 188.763 272.329 189.008 271.716L188.236 271.451ZM187.324 272.548C186.907 272.811 186.407 272.949 185.807 272.949V273.711C186.551 273.711 187.217 273.537 187.787 273.178L187.324 272.548ZM192.367 273.238H191.956V273.619H192.367V273.238ZM192.367 266.866V266.485H191.956V266.866H192.367ZM193.009 266.866H193.421V266.485H193.009V266.866ZM193.009 272.699H192.598V273.08H193.009V272.699ZM196.179 272.699H196.591V272.318H196.179V272.699ZM196.179 273.238V273.619H196.591V273.238H196.179ZM192.779 273.238V266.866H191.956V273.238H192.779ZM192.367 267.247H193.009V266.485H192.367V267.247ZM192.598 266.866V272.699H193.421V266.866H192.598ZM193.009 273.08H196.179V272.318H193.009V273.08ZM195.768 272.699V273.238H196.591V272.699H195.768ZM196.179 272.857H192.367V273.619H196.179V272.857ZM199.678 273.238H199.267V273.619H199.678V273.238ZM199.678 266.866V266.485H199.267V266.866H199.678ZM200.32 266.866H200.732V266.485H200.32V266.866ZM200.32 273.238V273.619H200.732V273.238H200.32ZM200.09 273.238V266.866H199.267V273.238H200.09ZM199.678 267.247H200.32V266.485H199.678V267.247ZM199.909 266.866V273.238H200.732V266.866H199.909ZM200.32 272.857H199.678V273.619H200.32V272.857ZM205.667 272.927L205.446 273.249L205.449 273.251L205.452 273.252L205.667 272.927ZM204.57 271.775L204.2 271.941L204.201 271.944L204.57 271.775ZM204.57 268.328L204.201 268.16L204.201 268.162L204.57 268.328ZM205.667 267.186L205.884 267.509L205.885 267.509L205.667 267.186ZM209.054 267.24L208.823 267.555L208.826 267.557L209.054 267.24ZM210.121 268.511L210.266 268.868L210.649 268.734L210.507 268.379L210.121 268.511ZM209.519 268.722L209.135 268.859L209.282 269.211L209.664 269.078L209.519 268.722ZM205.993 267.679L205.773 267.357L205.77 267.359L205.993 267.679ZM205.133 271.492L204.76 271.652L204.761 271.654L205.133 271.492ZM205.993 272.424L205.77 272.745L205.773 272.747L205.993 272.424ZM208.689 272.388L208.925 272.7L208.929 272.697L208.689 272.388ZM209.519 271.382L209.658 271.024L209.281 270.898L209.135 271.243L209.519 271.382ZM210.121 271.583L210.507 271.716L210.651 271.355L210.261 271.225L210.121 271.583ZM207.306 272.949C206.754 272.949 206.284 272.83 205.881 272.602L205.452 273.252C205.998 273.561 206.62 273.711 207.306 273.711V272.949ZM205.887 272.606C205.488 272.371 205.172 272.043 204.939 271.607L204.201 271.944C204.496 272.496 204.91 272.935 205.446 273.249L205.887 272.606ZM204.941 271.61C204.716 271.177 204.597 270.66 204.597 270.047H203.774C203.774 270.751 203.911 271.386 204.2 271.941L204.941 271.61ZM204.597 270.047C204.597 269.435 204.716 268.921 204.94 268.495L204.201 268.162C203.911 268.711 203.774 269.343 203.774 270.047H204.597ZM204.939 268.497C205.172 268.062 205.487 267.737 205.884 267.509L205.45 266.862C204.912 267.171 204.496 267.608 204.201 268.16L204.939 268.497ZM205.885 267.509C206.287 267.276 206.756 267.155 207.306 267.155V266.393C206.619 266.393 205.995 266.546 205.449 266.863L205.885 267.509ZM207.306 267.155C207.906 267.155 208.406 267.293 208.823 267.555L209.286 266.925C208.715 266.566 208.05 266.393 207.306 266.393V267.155ZM208.826 267.557C209.244 267.815 209.546 268.172 209.735 268.644L210.507 268.379C210.261 267.765 209.853 267.275 209.283 266.923L208.826 267.557ZM209.976 268.155L209.373 268.365L209.664 269.078L210.266 268.868L209.976 268.155ZM209.903 268.585C209.698 268.093 209.373 267.695 208.925 267.404L208.453 268.028C208.756 268.225 208.984 268.497 209.135 268.859L209.903 268.585ZM208.925 267.404C208.468 267.107 207.921 266.969 207.306 266.969V267.731C207.785 267.731 208.159 267.837 208.453 268.028L208.925 267.404ZM207.306 266.969C206.738 266.969 206.222 267.095 205.773 267.357L206.212 268.001C206.514 267.825 206.873 267.731 207.306 267.731V266.969ZM205.77 267.359C205.33 267.621 204.995 267.989 204.761 268.45L205.506 268.774C205.68 268.43 205.918 268.177 206.215 268L205.77 267.359ZM204.761 268.45C204.526 268.914 204.416 269.45 204.416 270.047H205.239C205.239 269.535 205.333 269.114 205.506 268.774L204.761 268.45ZM204.416 270.047C204.416 270.645 204.526 271.183 204.76 271.652L205.507 271.332C205.333 270.984 205.239 270.559 205.239 270.047H204.416ZM204.761 271.654C204.995 272.115 205.33 272.483 205.77 272.745L206.215 272.104C205.918 271.927 205.68 271.674 205.506 271.33L204.761 271.654ZM205.773 272.747C206.222 273.009 206.738 273.135 207.306 273.135V272.373C206.873 272.373 206.514 272.279 206.212 272.102L205.773 272.747ZM207.306 273.135C207.921 273.135 208.468 272.997 208.925 272.7L208.453 272.076C208.159 272.267 207.785 272.373 207.306 272.373V273.135ZM208.929 272.697C209.373 272.402 209.697 272.006 209.902 271.521L209.135 271.243C208.985 271.599 208.756 271.874 208.449 272.079L208.929 272.697ZM209.379 271.741L209.981 271.942L210.261 271.225L209.658 271.024L209.379 271.741ZM209.735 271.451C209.546 271.923 209.243 272.284 208.823 272.548L209.286 273.178C209.854 272.821 210.261 272.329 210.507 271.716L209.735 271.451ZM208.823 272.548C208.406 272.811 207.906 272.949 207.306 272.949V273.711C208.05 273.711 208.715 273.537 209.286 273.178L208.823 272.548ZM214.37 271.154H213.958V272.092L214.665 271.419L214.37 271.154ZM214.37 270.386L214.072 270.122L213.958 270.233V270.386H214.37ZM218.004 266.866V266.485H217.828L217.707 266.602L218.004 266.866ZM218.873 266.866L219.168 267.131L219.847 266.485H218.873V266.866ZM213.866 273.238H213.454V273.619H213.866V273.238ZM213.866 266.866V266.485H213.454V266.866H213.866ZM214.508 266.866H214.919V266.485H214.508V266.866ZM214.508 273.238V273.619H214.919V273.238H214.508ZM218.143 273.238L217.795 273.442L217.916 273.619H218.143V273.238ZM215.723 269.691L215.444 269.41L215.191 269.625L215.375 269.894L215.723 269.691ZM216.207 269.279L216.555 269.076L216.292 268.69L215.928 268.999L216.207 269.279ZM218.903 273.238V273.619H219.649L219.251 273.035L218.903 273.238ZM214.781 271.154V270.386H213.958V271.154H214.781ZM214.667 270.649L218.302 267.129L217.707 266.602L214.072 270.122L214.667 270.649ZM218.004 267.247H218.873V266.485H218.004V267.247ZM218.578 266.6L214.075 270.888L214.665 271.419L219.168 267.131L218.578 266.6ZM214.277 273.238V266.866H213.454V273.238H214.277ZM213.866 267.247H214.508V266.485H213.866V267.247ZM214.096 266.866V273.238H214.919V266.866H214.096ZM214.508 272.857H213.866V273.619H214.508V272.857ZM218.49 273.035L216.071 269.487L215.375 269.894L217.795 273.442L218.49 273.035ZM216.001 269.971L216.485 269.56L215.928 268.999L215.444 269.41L216.001 269.971ZM215.859 269.482L218.555 273.441L219.251 273.035L216.555 269.076L215.859 269.482ZM218.903 272.857H218.143V273.619H218.903V272.857ZM227.485 273.238H227.073V273.619H227.485V273.238ZM227.485 266.866V266.485H227.073V266.866H227.485ZM228.453 266.866L228.833 266.72L228.728 266.485H228.453V266.866ZM230.803 272.132V272.513H231.418L231.183 271.986L230.803 272.132ZM230.675 272.132L230.295 271.986L230.059 272.513H230.675V272.132ZM233.035 266.866V266.485H232.761L232.655 266.72L233.035 266.866ZM233.983 266.866H234.395V266.485H233.983V266.866ZM233.983 273.238V273.619H234.395V273.238H233.983ZM233.341 273.238H232.93V273.619H233.341V273.238ZM233.341 267.551L233.441 267.182L232.93 267.063V267.551H233.341ZM233.381 267.56L233.761 267.707L233.945 267.298L233.481 267.191L233.381 267.56ZM231.06 272.708V273.089H231.334L231.44 272.855L231.06 272.708ZM230.418 272.708L230.039 272.855L230.144 273.089H230.418V272.708ZM228.087 267.56L227.988 267.191L227.523 267.298L227.708 267.708L228.087 267.56ZM228.127 267.551H228.538V267.063L228.027 267.182L228.127 267.551ZM228.127 273.238V273.619H228.538V273.238H228.127ZM227.896 273.238V266.866H227.073V273.238H227.896ZM227.485 267.247H228.453V266.485H227.485V267.247ZM228.072 267.011L230.423 272.277L231.183 271.986L228.833 266.72L228.072 267.011ZM230.803 271.751H230.675V272.513H230.803V271.751ZM231.055 272.278L233.416 267.012L232.655 266.72L230.295 271.986L231.055 272.278ZM233.035 267.247H233.983V266.485H233.035V267.247ZM233.572 266.866V273.238H234.395V266.866H233.572ZM233.983 272.857H233.341V273.619H233.983V272.857ZM233.753 273.238V267.551H232.93V273.238H233.753ZM233.242 267.921L233.281 267.93L233.481 267.191L233.441 267.182L233.242 267.921ZM233.001 267.414L230.68 272.561L231.44 272.855L233.761 267.707L233.001 267.414ZM231.06 272.327H230.418V273.089H231.06V272.327ZM230.798 272.561L228.467 267.413L227.708 267.708L230.039 272.855L230.798 272.561ZM228.187 267.93L228.227 267.921L228.027 267.182L227.988 267.191L228.187 267.93ZM227.715 267.551V273.238H228.538V267.551H227.715ZM228.127 272.857H227.485V273.619H228.127V272.857ZM238.133 273.238H237.721V273.619H238.133V273.238ZM238.133 266.866V266.485H237.721V266.866H238.133ZM242.637 266.866H243.048V266.485H242.637V266.866ZM242.637 267.405V267.786H243.048V267.405H242.637ZM238.775 267.405V267.024H238.363V267.405H238.775ZM238.775 269.727H238.363V270.108H238.775V269.727ZM242.241 269.727H242.653V269.346H242.241V269.727ZM242.241 270.267V270.648H242.653V270.267H242.241ZM238.775 270.267V269.886H238.363V270.267H238.775ZM238.775 272.699H238.363V273.08H238.775V272.699ZM242.637 272.699H243.048V272.318H242.637V272.699ZM242.637 273.238V273.619H243.048V273.238H242.637ZM238.544 273.238V266.866H237.721V273.238H238.544ZM238.133 267.247H242.637V266.485H238.133V267.247ZM242.225 266.866V267.405H243.048V266.866H242.225ZM242.637 267.024H238.775V267.786H242.637V267.024ZM238.363 267.405V269.727H239.186V267.405H238.363ZM238.775 270.108H242.241V269.346H238.775V270.108ZM241.83 269.727V270.267H242.653V269.727H241.83ZM242.241 269.886H238.775V270.648H242.241V269.886ZM238.363 270.267V272.699H239.186V270.267H238.363ZM238.775 273.08H242.637V272.318H238.775V273.08ZM242.225 272.699V273.238H243.048V272.699H242.225ZM242.637 272.857H238.133V273.619H242.637V272.857ZM247.681 266.689H248.092V266.308H247.681V266.689ZM247.672 269.702L247.26 269.685V269.689L247.26 269.694L247.672 269.702ZM247.613 270.51L247.204 270.47L247.204 270.474L247.204 270.477L247.613 270.51ZM247.565 270.952V271.333H247.933L247.974 270.995L247.565 270.952ZM246.967 270.952L246.56 271.002L246.606 271.333H246.967V270.952ZM246.909 270.51L246.499 270.543L246.5 270.547L246.5 270.552L246.909 270.51ZM246.852 269.702L246.44 269.711V269.715L246.441 269.72L246.852 269.702ZM246.847 266.689V266.308H246.435V266.689H246.847ZM246.678 272.515L246.298 272.368L246.297 272.372L246.295 272.376L246.678 272.515ZM246.808 272.332L247.099 272.601L247.104 272.597L247.107 272.593L246.808 272.332ZM247.001 272.207L247.165 272.556L247.169 272.555L247.173 272.553L247.001 272.207ZM247.488 272.207L247.311 272.551L247.32 272.555L247.33 272.559L247.488 272.207ZM247.686 272.332L247.387 272.593L247.395 272.601L247.404 272.609L247.686 272.332ZM247.816 272.515L247.431 272.649L247.434 272.658L247.439 272.667L247.816 272.515ZM247.816 272.961L247.439 272.809L247.436 272.816L247.433 272.823L247.816 272.961ZM247.488 273.26L247.344 272.904L247.334 272.907L247.324 272.911L247.488 273.26ZM247.001 273.26L247.16 272.909L247.155 272.907L247.151 272.906L247.001 273.26ZM246.808 273.144L246.509 273.406L246.513 273.41L246.517 273.414L246.808 273.144ZM246.678 272.961L246.295 273.1L246.297 273.107L246.301 273.113L246.678 272.961ZM247.269 266.689V269.301H248.092V266.689H247.269ZM247.269 269.301C247.269 269.432 247.267 269.56 247.26 269.685L248.083 269.72C248.089 269.583 248.092 269.443 248.092 269.301H247.269ZM247.26 269.694C247.257 269.819 247.251 269.946 247.241 270.074L248.063 270.125C248.073 269.986 248.08 269.848 248.083 269.711L247.26 269.694ZM247.241 270.074C247.232 270.203 247.22 270.335 247.204 270.47L248.023 270.551C248.039 270.406 248.053 270.264 248.063 270.125L247.241 270.074ZM247.204 270.477C247.191 270.611 247.176 270.755 247.157 270.91L247.974 270.995C247.994 270.835 248.011 270.684 248.024 270.543L247.204 270.477ZM247.565 270.571H246.967V271.333H247.565V270.571ZM247.375 270.903C247.353 270.747 247.334 270.603 247.319 270.469L246.5 270.552C246.517 270.692 246.537 270.842 246.56 271.002L247.375 270.903ZM247.32 270.478C247.307 270.341 247.296 270.206 247.286 270.074L246.465 270.125C246.475 270.261 246.486 270.401 246.499 270.543L247.32 270.478ZM247.286 270.074C247.277 269.943 247.269 269.813 247.263 269.685L246.441 269.72C246.447 269.853 246.455 269.989 246.465 270.125L247.286 270.074ZM247.263 269.694C247.26 269.566 247.258 269.435 247.258 269.301H246.435C246.435 269.44 246.437 269.577 246.44 269.711L247.263 269.694ZM247.258 269.301V266.689H246.435V269.301H247.258ZM246.847 267.07H247.681V266.308H246.847V267.07ZM247.046 272.734C247.046 272.701 247.052 272.676 247.061 272.654L246.295 272.376C246.246 272.491 246.223 272.611 246.223 272.734H247.046ZM247.058 272.661C247.071 272.632 247.086 272.614 247.099 272.601L246.517 272.063C246.422 272.151 246.349 272.255 246.298 272.368L247.058 272.661ZM247.107 272.593C247.123 272.578 247.141 272.566 247.165 272.556L246.837 271.858C246.713 271.908 246.602 271.979 246.509 272.07L247.107 272.593ZM247.173 272.553C247.195 272.544 247.218 272.539 247.247 272.539V271.777C247.102 271.777 246.962 271.805 246.83 271.861L247.173 272.553ZM247.247 272.539C247.276 272.539 247.295 272.544 247.311 272.551L247.666 271.863C247.533 271.805 247.392 271.777 247.247 271.777V272.539ZM247.33 272.559C247.357 272.569 247.374 272.581 247.387 272.593L247.985 272.07C247.889 271.976 247.774 271.905 247.646 271.855L247.33 272.559ZM247.404 272.609C247.414 272.618 247.423 272.63 247.431 272.649L248.202 272.381C248.151 272.257 248.074 272.147 247.969 272.055L247.404 272.609ZM247.439 272.667C247.448 272.686 247.453 272.707 247.453 272.734H248.276C248.276 272.606 248.249 272.481 248.194 272.363L247.439 272.667ZM247.453 272.734C247.453 272.771 247.446 272.794 247.439 272.809L248.194 273.113C248.251 272.992 248.276 272.863 248.276 272.734H247.453ZM247.433 272.823C247.425 272.841 247.414 272.857 247.395 272.875L247.977 273.414C248.074 273.324 248.149 273.219 248.2 273.1L247.433 272.823ZM247.395 272.875C247.385 272.885 247.369 272.895 247.344 272.904L247.633 273.617C247.761 273.573 247.878 273.505 247.977 273.414L247.395 272.875ZM247.324 272.911C247.306 272.919 247.282 272.924 247.247 272.924V273.686C247.386 273.686 247.523 273.662 247.652 273.61L247.324 272.911ZM247.247 272.924C247.213 272.924 247.185 272.919 247.16 272.909L246.843 273.612C246.972 273.662 247.108 273.686 247.247 273.686V272.924ZM247.151 272.906C247.129 272.898 247.113 272.887 247.099 272.875L246.517 273.414C246.613 273.503 246.726 273.57 246.851 273.615L247.151 272.906ZM247.107 272.883C247.086 272.862 247.069 272.838 247.055 272.809L246.301 273.113C246.352 273.222 246.421 273.32 246.509 273.406L247.107 272.883ZM247.061 272.823C247.053 272.804 247.046 272.776 247.046 272.734H246.223C246.223 272.858 246.245 272.982 246.295 273.1L247.061 272.823Z" fill="black"/>
</g>
</g>
</g>
<defs>
<clipPath id="clip0_10081_71">
<rect width="370" height="311.014" fill="white"/>
</clipPath>
<clipPath id="clip1_10081_71">
<rect width="66.6667" height="8" fill="white" transform="translate(182 266)"/>
</clipPath>
</defs>
</svg>
